<svg width="30" height="35" viewBox="0 0 30 35" fill="none" xmlns="http://www.w3.org/2000/svg">
<path d="M20.3906 19.4051H15.9375V15.0477C15.9375 14.9216 15.832 14.8184 15.7031 14.8184H14.2969C14.168 14.8184 14.0625 14.9216 14.0625 15.0477V19.4051H9.60938C9.48047 19.4051 9.375 19.5083 9.375 19.6344V21.0104C9.375 21.1365 9.48047 21.2397 9.60938 21.2397H14.0625V25.5971C14.0625 25.7232 14.168 25.8264 14.2969 25.8264H15.7031C15.832 25.8264 15.9375 25.7232 15.9375 25.5971V21.2397H20.3906C20.5195 21.2397 20.625 21.1365 20.625 21.0104V19.6344C20.625 19.5083 20.5195 19.4051 20.3906 19.4051Z" fill="#1CDC6E"/>
<path d="M15 7.47998C7.75195 7.47998 1.875 13.2305 1.875 20.3227C1.875 27.4149 7.75195 33.1655 15 33.1655C22.248 33.1655 28.125 27.4149 28.125 20.3227C28.125 13.2305 22.248 7.47998 15 7.47998ZM15 30.9868C8.98242 30.9868 4.10156 26.2109 4.10156 20.3227C4.10156 14.4346 8.98242 9.65866 15 9.65866C21.0176 9.65866 25.8984 14.4346 25.8984 20.3227C25.8984 26.2109 21.0176 30.9868 15 30.9868Z" fill="#1CDC6E"/>
</svg>
