<?xml version="1.0" standalone="no"?>
<!DOCTYPE svg PUBLIC "-//W3C//DTD SVG 20010904//EN"
 "http://www.w3.org/TR/2001/REC-SVG-20010904/DTD/svg10.dtd">
<svg version="1.0" xmlns="http://www.w3.org/2000/svg"
 width="1280.000000pt" height="720.000000pt" viewBox="0 0 1280.000000 720.000000"
 preserveAspectRatio="xMidYMid meet">

<g transform="translate(0.000000,720.000000) scale(0.100000,-0.100000)"
fill="#000000" stroke="none">
<path d="M4 6148 c3 -579 7 -1138 8 -1243 1 -104 2 -287 1 -405 -1 -118 -1
-375 0 -570 1 -195 0 -519 -2 -720 -1 -201 -3 -387 -3 -415 1 -27 -1 -662 -4
-1410 -2 -819 0 -1363 5 -1368 10 -10 14 10 31 178 49 450 276 845 684 1189
261 220 351 279 1241 818 614 372 1017 508 1509 508 417 0 820 -101 1240 -312
212 -107 573 -342 821 -536 139 -108 435 -355 584 -486 63 -56 194 -170 290
-255 97 -84 205 -179 240 -210 133 -116 342 -287 531 -434 107 -84 287 -225
399 -314 l204 -163 2509 0 2508 0 0 3600 0 3600 -6400 0 -6401 0 5 -1052z
m8045 955 c7 -32 48 -202 91 -378 93 -378 116 -488 210 -985 117 -616 179
-870 293 -1195 234 -670 654 -1129 1212 -1325 211 -74 390 -108 846 -160 145
-17 323 -38 394 -47 94 -12 212 -17 425 -17 269 -1 305 1 410 22 157 31 286
75 405 136 125 65 204 125 323 244 105 106 126 108 26 3 -232 -247 -505 -375
-884 -416 -225 -25 -441 -18 -795 25 -88 11 -261 31 -385 45 -282 31 -439 57
-584 95 -327 85 -590 223 -797 418 -420 395 -649 890 -833 1802 -8 41 -54 273
-101 515 -48 242 -133 632 -191 868 -57 236 -104 431 -104 435 1 23 29 -37 39
-85z m-5383 -2381 c7 -4 23 -41 37 -82 14 -41 40 -113 57 -160 18 -47 35 -95
38 -107 16 -55 33 -25 114 212 22 66 45 126 51 133 11 14 53 16 61 4 3 -5 -14
-58 -38 -118 -24 -60 -63 -160 -87 -223 -46 -117 -71 -147 -106 -125 -16 10
-194 460 -185 469 8 7 45 6 58 -3z m1182 -74 c2 -43 5 -78 7 -78 3 0 19 9 37
20 39 24 67 25 113 6 56 -24 66 -56 63 -209 l-3 -132 -30 0 -30 0 -3 125 c-2
113 -4 127 -23 143 -29 24 -63 21 -96 -7 -27 -23 -28 -28 -33 -143 l-5 -118
-30 0 -30 0 -3 225 c-1 123 0 231 3 238 3 8 16 12 32 10 28 -3 28 -4 31 -80z
m1006 76 c19 -7 21 -35 4 -52 -7 -7 -24 -12 -40 -12 -17 0 -31 -7 -38 -19 -11
-22 -8 -25 33 -35 22 -5 27 -12 27 -36 0 -27 -3 -30 -30 -30 l-30 0 0 -140 0
-140 -26 -6 c-14 -4 -29 -3 -34 2 -5 5 -11 70 -12 144 -3 131 -4 135 -25 138
-34 5 -32 57 2 66 21 5 25 12 25 42 0 48 39 84 91 84 20 0 44 -3 53 -6z m3341
-234 l0 -235 -26 -3 c-20 -2 -28 2 -32 18 l-6 22 -29 -22 c-54 -40 -139 -4
-176 74 -37 77 -8 209 53 240 38 20 101 21 127 1 10 -8 22 -15 25 -15 4 0 7
32 8 71 2 83 5 91 34 87 22 -3 22 -5 22 -238z m-905 170 c0 -48 1 -51 31 -57
25 -5 30 -10 27 -31 -2 -18 -11 -28 -28 -32 -24 -6 -25 -9 -28 -90 -4 -104 2
-130 28 -130 27 0 50 -47 29 -61 -26 -16 -69 -10 -94 16 -24 23 -25 30 -25
143 0 136 -2 139 -88 122 -70 -13 -75 -23 -80 -157 -2 -65 -8 -122 -12 -126
-4 -5 -17 -6 -29 -2 -20 6 -21 12 -21 176 l0 169 23 0 c13 0 28 -5 35 -12 8
-8 15 -8 24 0 8 6 43 12 78 14 l65 3 6 43 c5 42 20 62 47 62 8 0 12 -17 12
-50z m-4032 -65 c22 -9 48 -29 60 -44 25 -34 47 -110 35 -122 -5 -5 -60 -10
-123 -11 -100 -3 -115 -5 -118 -21 -2 -9 10 -31 26 -47 37 -36 90 -41 129 -10
28 22 68 26 79 9 10 -16 -28 -61 -67 -81 -109 -54 -220 12 -236 140 -10 84 29
156 102 188 40 18 67 17 113 -1z m220 -2 c9 -15 12 -15 45 0 46 22 85 21 124
-3 50 -30 54 -46 51 -197 l-3 -138 -30 0 -30 0 -5 130 c-5 126 -6 130 -31 144
-36 20 -75 7 -100 -32 -17 -27 -19 -47 -17 -130 2 -104 -4 -121 -43 -115 -24
3 -24 3 -27 167 -2 112 1 168 9 177 16 19 46 18 57 -3z m886 1 c19 -9 39 -26
45 -38 5 -12 12 -75 15 -141 2 -66 6 -129 8 -140 4 -27 -37 -33 -63 -9 -18 16
-21 17 -55 1 -92 -44 -184 2 -184 92 0 34 46 88 81 95 135 26 139 28 139 46 0
41 -93 56 -125 20 -21 -23 -85 -28 -85 -7 0 24 33 59 74 78 51 23 105 24 150
3z m736 -2 c19 -9 40 -28 47 -42 6 -14 13 -84 14 -160 3 -134 3 -135 -20 -138
-12 -2 -31 4 -41 13 -17 15 -21 15 -49 1 -97 -50 -210 24 -178 117 12 37 67
77 104 77 32 0 92 17 107 31 6 5 2 17 -9 29 -24 27 -84 27 -118 0 -29 -23 -77
-27 -77 -6 0 22 41 67 74 82 43 19 105 17 146 -4z m364 12 c35 -14 17 -55 -74
-164 -49 -59 -90 -111 -90 -114 0 -3 45 -6 101 -6 l100 0 -3 -32 -3 -33 -145
0 -145 0 -3 30 c-2 26 11 47 88 138 49 59 90 109 90 112 0 2 -37 5 -82 7 -79
3 -83 4 -86 27 -2 13 2 28 10 32 15 10 218 12 242 3z m281 -17 c44 -24 85 -92
85 -139 l0 -28 -112 0 c-135 0 -146 -5 -124 -48 20 -39 44 -52 94 -52 26 0 45
6 57 20 19 21 60 27 70 10 20 -32 -75 -100 -138 -100 -47 0 -118 40 -140 79
-24 39 -26 146 -4 188 45 85 133 115 212 70z m200 6 c14 -13 21 -14 36 -5 10
7 37 12 59 12 32 0 40 -4 40 -18 0 -26 -20 -42 -51 -42 -18 0 -35 -9 -48 -26
-18 -23 -21 -41 -21 -140 0 -101 -2 -113 -19 -119 -10 -3 -26 -3 -35 1 -14 5
-16 28 -16 174 0 152 2 169 18 173 9 3 18 5 19 6 1 0 9 -7 18 -16z m572 -9
c36 -23 63 -86 63 -147 0 -67 -20 -117 -59 -150 -45 -38 -84 -43 -126 -17
l-34 21 -3 -78 c-3 -77 -3 -78 -30 -81 -36 -4 -37 1 -35 253 l2 210 33 3 c27
3 32 0 32 -18 0 -21 1 -21 32 5 26 22 37 25 67 20 20 -4 46 -13 58 -21z m1978
11 c17 -9 37 -26 43 -38 6 -12 13 -76 16 -142 2 -66 6 -129 8 -140 4 -27 -37
-33 -63 -9 -18 16 -21 17 -55 1 -92 -44 -184 2 -184 92 0 34 46 88 81 95 128
25 139 28 139 43 0 42 -92 59 -125 23 -11 -13 -31 -20 -52 -20 -31 0 -34 2
-27 23 10 33 25 48 69 68 49 23 106 24 150 4z m-1610 -20 c23 -22 25 -31 25
-127 0 -57 5 -121 10 -143 12 -53 -19 -75 -55 -38 -16 15 -20 15 -63 0 -35
-12 -58 -14 -92 -8 -55 11 -80 40 -80 93 0 46 39 93 86 103 130 25 147 34 119
65 -25 28 -95 28 -120 0 -19 -21 -75 -28 -75 -9 0 21 22 51 53 69 23 15 50 20
100 20 59 0 71 -3 92 -25z m731 6 c35 -21 74 -93 74 -134 l0 -27 -119 0 c-67
0 -122 -4 -126 -10 -8 -13 22 -67 44 -80 32 -17 91 -12 118 10 14 11 34 20 44
20 52 0 20 -62 -48 -92 -79 -35 -150 -13 -200 62 -29 41 -31 137 -5 190 37 75
146 105 218 61z m-1051 -621 c0 -20 -6 -26 -28 -28 -18 -2 -29 2 -33 12 -11
28 4 48 33 44 22 -2 28 -8 28 -28z m345 -205 l0 -235 -30 0 c-23 0 -30 4 -30
20 0 11 -4 20 -8 20 -5 0 -17 -9 -27 -20 -22 -25 -76 -26 -114 -4 -71 42 -98
141 -65 235 31 86 118 125 177 79 14 -11 28 -20 31 -20 3 0 6 36 6 80 l0 80
30 0 30 0 0 -235z m695 0 l0 -230 -27 -3 c-20 -2 -28 1 -28 12 0 25 -18 28
-40 6 -44 -44 -138 -11 -175 60 -21 41 -19 156 4 195 39 67 125 95 169 55 12
-11 25 -20 30 -20 6 0 9 34 8 76 -1 41 1 78 4 80 2 3 16 4 30 2 l25 -3 0 -230z
m-4905 100 c0 -19 19 -19 44 0 43 33 140 9 165 -39 14 -27 23 -186 15 -248 -6
-45 -9 -48 -35 -48 l-29 0 0 123 c0 105 -3 126 -17 140 -28 24 -77 26 -109 3
-16 -12 -20 -31 -24 -138 l-5 -123 -32 -3 -33 -3 0 169 c0 93 3 172 7 175 13
13 53 7 53 -8z m517 -5 c67 -41 96 -169 55 -250 -51 -103 -200 -108 -263 -8
-16 27 -19 46 -17 108 3 83 25 127 76 154 40 21 111 19 149 -4z m325 6 c37
-16 64 -56 55 -80 -9 -22 -32 -20 -66 5 -37 27 -116 24 -116 -5 0 -15 16 -23
78 -41 43 -13 90 -33 103 -46 44 -42 25 -122 -37 -155 -41 -21 -127 -18 -167
6 -31 19 -66 76 -56 92 11 18 54 6 82 -22 36 -36 87 -40 123 -11 33 27 19 38
-73 62 -87 23 -128 59 -128 113 0 51 57 96 121 96 26 0 62 -6 81 -14z m335 -6
c36 -21 57 -55 49 -76 -8 -20 -33 -17 -63 6 -30 23 -104 27 -122 6 -15 -18 0
-29 64 -46 67 -18 122 -46 135 -69 23 -45 1 -104 -52 -134 -37 -21 -119 -22
-159 -2 -30 16 -69 68 -69 93 0 18 59 15 67 -3 8 -21 56 -45 91 -45 33 0 79
37 64 52 -6 6 -42 19 -82 29 -89 24 -116 42 -130 84 -14 42 6 86 47 108 42 22
122 21 160 -3z m352 5 c41 -21 50 -54 53 -203 l3 -132 -27 0 c-15 0 -30 5 -33
10 -3 6 -17 10 -30 10 -13 0 -27 -4 -30 -10 -3 -5 -31 -10 -61 -10 -48 0 -60
4 -85 29 -71 71 -4 181 111 181 97 0 110 68 13 72 -28 1 -49 -5 -68 -20 -48
-38 -91 -20 -65 27 27 52 156 79 219 46z m511 -5 c30 -21 65 -84 55 -100 -13
-21 -54 -10 -75 20 -16 23 -29 30 -54 30 -52 0 -71 -29 -71 -107 0 -59 3 -67
28 -89 38 -32 70 -31 100 6 17 20 35 30 52 30 24 0 27 -3 21 -27 -4 -16 -23
-43 -43 -60 -30 -27 -45 -33 -82 -33 -94 0 -145 60 -146 170 0 78 22 130 68
159 43 26 111 27 147 1z m340 -2 c48 -33 70 -81 70 -153 0 -108 -57 -175 -150
-175 -92 0 -150 68 -150 175 0 107 58 175 150 175 32 0 57 -7 80 -22z m197 3
c5 -19 5 -19 36 0 45 27 98 25 131 -6 15 -14 30 -25 33 -25 3 0 18 11 35 25
44 37 105 35 144 -6 l29 -30 0 -142 0 -142 -32 -3 -33 -3 0 122 c0 100 -3 126
-17 141 -24 27 -69 23 -99 -9 -25 -27 -26 -32 -22 -138 l3 -110 -32 -3 c-22
-2 -33 1 -34 10 0 7 0 60 1 116 1 124 -10 152 -65 152 -24 0 -39 -7 -54 -26
-18 -23 -21 -41 -21 -140 l0 -114 -35 0 -35 0 0 168 c0 93 3 172 7 175 14 15
55 7 60 -12z m554 -103 c-3 -114 -2 -118 23 -143 34 -34 71 -32 107 6 29 31
29 33 29 146 l0 114 28 -3 27 -3 3 -172 2 -173 -30 0 c-26 0 -30 4 -30 26 l0
26 -31 -26 c-47 -40 -110 -37 -155 8 l-34 34 0 142 0 141 32 -3 33 -3 -4 -117z
m366 103 c5 -19 5 -19 36 0 48 29 106 25 147 -10 l35 -29 3 -146 3 -146 -30 0
-31 0 0 120 c0 115 -1 122 -25 145 -28 29 -45 31 -85 10 -44 -23 -50 -43 -50
-165 l0 -111 -31 3 -32 3 2 164 c1 91 5 169 7 173 10 16 46 8 51 -11z m368
-156 l0 -170 -30 0 -30 0 -3 160 c-1 87 0 165 3 173 3 8 16 12 32 10 l28 -3 0
-170z m652 155 c39 -24 42 -34 46 -180 1 -63 4 -122 7 -130 7 -21 -38 -25 -60
-5 -17 15 -21 15 -49 1 -81 -43 -182 -1 -184 77 -2 69 44 103 163 122 52 8 64
18 51 43 -15 27 -73 37 -109 18 -73 -40 -72 -40 -85 -27 -18 18 11 62 53 83
48 24 127 23 167 -2z m666 5 c19 -8 45 -27 56 -43 26 -38 42 -107 28 -121 -7
-7 -57 -11 -124 -11 -108 0 -113 -1 -113 -21 0 -12 14 -34 31 -50 37 -35 80
-38 124 -9 30 20 85 27 85 11 0 -16 -42 -61 -70 -76 -44 -23 -121 -19 -160 8
-51 34 -73 78 -72 147 2 136 101 213 215 165z m-5131 -665 c20 -30 71 -108
112 -172 42 -65 81 -118 86 -118 6 0 11 72 12 173 3 170 3 172 26 175 l22 3 0
-230 0 -231 -29 0 c-24 0 -35 8 -58 45 -92 146 -199 297 -208 294 -5 -2 -11
-42 -11 -89 -1 -47 -2 -122 -3 -168 -1 -80 -2 -83 -23 -80 -23 3 -23 3 -26
231 l-2 228 32 -3 c27 -2 39 -13 70 -58z m2122 51 c12 -19 -7 -41 -35 -41 -30
0 -61 -33 -52 -56 3 -8 18 -14 35 -14 26 0 29 -3 26 -27 -2 -22 -9 -29 -30
-31 l-27 -3 -3 -137 c-3 -133 -4 -137 -25 -140 -23 -3 -23 -3 -23 133 0 135 0
136 -25 145 -34 13 -35 57 -2 62 18 2 23 10 25 45 2 30 10 47 25 58 23 16 102
21 111 6z m436 -16 c0 -20 -5 -25 -25 -25 -20 0 -25 5 -25 25 0 20 5 25 25 25
20 0 25 -5 25 -25z m595 13 c21 -9 31 -9 46 0 27 17 39 15 39 -6 0 -34 -35
-55 -77 -48 -48 8 -51 8 -90 0 -37 -7 -39 -4 -18 36 17 33 53 40 100 18z m910
-13 c0 -15 -8 -21 -30 -23 -39 -5 -55 -19 -55 -48 0 -17 6 -23 28 -26 41 -5
43 -43 3 -51 l-30 -6 -3 -138 c-3 -135 -4 -138 -25 -141 -23 -3 -23 -3 -23
137 0 87 -4 141 -10 142 -5 1 -16 2 -22 3 -7 0 -14 13 -16 28 -3 21 1 27 20
30 18 2 24 11 29 42 9 53 40 78 93 74 33 -2 41 -7 41 -23z m208 -10 c-15 -19
-36 -35 -45 -35 -22 0 -22 -1 -2 38 12 25 22 32 45 32 l30 0 -28 -35z m557 10
c0 -20 -5 -25 -25 -25 -20 0 -25 5 -25 25 0 20 5 25 25 25 20 0 25 -5 25 -25z
m140 -195 c0 -121 0 -223 0 -227 0 -5 -10 -8 -21 -8 -21 0 -22 2 -21 225 1
124 2 226 2 228 0 1 9 2 20 2 19 0 20 -7 20 -220z m530 -11 l0 -230 -22 3
c-15 2 -24 11 -26 26 -4 28 -9 28 -38 -3 -32 -34 -82 -34 -124 1 -45 38 -60
75 -60 146 0 73 21 117 72 148 45 27 80 25 112 -7 14 -14 29 -23 33 -20 3 4 5
38 4 77 -2 78 2 90 30 90 18 0 19 -9 19 -231z m150 206 c0 -20 -5 -25 -25 -25
-20 0 -25 5 -25 25 0 20 5 25 25 25 20 0 25 -5 25 -25z m450 0 c0 -20 -5 -25
-25 -25 -20 0 -25 5 -25 25 0 20 5 25 25 25 20 0 25 -5 25 -25z m342 -145 c4
-316 7 -285 -24 -288 -23 -3 -28 1 -28 17 0 26 -12 27 -35 1 -39 -43 -137 -14
-170 50 -23 45 -22 152 2 193 24 40 78 77 113 77 17 0 38 -10 51 -25 13 -13
27 -25 32 -25 4 0 7 35 7 78 0 84 3 92 32 92 17 0 18 -13 20 -170z m148 145
c0 -20 -5 -25 -25 -25 -20 0 -25 5 -25 25 0 20 5 25 25 25 20 0 25 -5 25 -25z
m-3688 -42 c3 -41 6 -48 28 -53 16 -4 26 -14 28 -28 3 -18 -3 -23 -27 -28
l-31 -6 0 -102 c0 -105 7 -126 42 -126 13 0 18 -8 18 -25 0 -22 -4 -25 -33
-25 -18 0 -43 7 -55 16 -21 14 -22 22 -22 134 0 109 -2 120 -20 130 -11 6 -20
21 -20 34 0 15 7 26 20 29 14 4 20 14 20 35 0 43 9 62 31 62 14 0 18 -9 21
-47z m-2484 -178 c2 -106 5 -122 24 -142 30 -32 77 -30 110 5 25 25 27 34 30
142 l3 115 25 0 25 0 0 -165 c0 -163 0 -165 -22 -168 -17 -3 -23 2 -23 17 0
32 -18 34 -51 7 -49 -41 -131 -27 -160 26 -13 24 -26 247 -15 273 3 10 15 15
28 13 22 -3 23 -7 26 -123z m365 105 l5 -21 34 21 c69 42 158 13 178 -58 6
-23 8 -86 5 -148 -5 -105 -6 -109 -27 -109 -22 0 -23 3 -26 122 -3 117 -3 122
-28 138 -36 23 -92 16 -115 -15 -15 -19 -20 -49 -24 -135 -5 -106 -6 -110 -27
-110 -23 0 -23 2 -26 155 -1 85 0 160 2 167 8 21 43 15 49 -7z m503 2 c31 -25
57 -70 50 -87 -9 -24 -33 -18 -56 15 -17 24 -28 30 -60 30 -45 0 -75 -31 -86
-86 -8 -45 0 -76 32 -113 36 -44 76 -42 119 4 21 24 37 33 48 29 21 -8 21 -8
2 -44 -48 -92 -175 -92 -230 1 -26 45 -27 149 -2 197 35 65 134 94 183 54z
m363 -11 l31 -29 0 -110 c0 -60 3 -124 6 -141 6 -28 4 -31 -19 -31 -13 0 -30
7 -37 15 -11 13 -16 13 -47 0 -63 -26 -129 -16 -160 24 -21 27 -16 87 10 116
16 19 40 29 92 39 39 8 78 17 88 21 42 17 1 75 -54 75 -14 0 -48 -11 -74 -26
-56 -30 -78 -21 -51 21 23 35 69 54 132 55 44 0 57 -5 83 -29z m710 9 c99 -50
102 -245 5 -301 -41 -24 -111 -24 -152 1 -96 59 -91 248 7 300 47 25 92 25
140 0z m201 -150 l0 -170 -25 0 -25 0 0 170 0 170 25 0 25 0 0 -170z m669 155
c41 -21 50 -55 53 -198 3 -120 2 -127 -16 -127 -11 0 -27 7 -37 16 -16 14 -20
14 -48 0 -99 -52 -209 22 -171 115 15 34 74 69 118 69 71 0 113 35 80 68 -20
20 -95 14 -138 -10 -46 -27 -66 -17 -47 22 26 52 143 78 206 45z m324 0 c19
-8 46 -29 59 -47 19 -28 23 -45 23 -113 0 -64 -4 -85 -20 -107 -44 -59 -136
-75 -196 -35 -98 65 -91 243 12 298 42 22 76 23 122 4z m764 -5 c40 -24 42
-33 45 -193 3 -136 -2 -148 -44 -110 -17 15 -21 15 -54 0 -102 -49 -208 16
-171 104 20 48 35 58 113 73 112 22 125 35 83 77 -18 18 -29 20 -65 15 -25 -3
-58 -16 -74 -28 -23 -16 -33 -19 -42 -10 -8 8 -7 17 6 37 35 53 143 72 203 35z
m313 5 c33 -17 65 -69 56 -91 -8 -21 -20 -17 -59 21 -44 43 -70 44 -108 6 -26
-26 -29 -36 -29 -91 0 -55 3 -65 29 -91 38 -38 74 -38 113 1 29 29 68 40 68
20 0 -25 -32 -71 -60 -85 -61 -32 -150 -7 -181 52 -21 40 -19 172 4 206 39 60
110 82 167 52z m200 -155 l0 -170 -25 0 -25 0 0 163 c0 90 3 167 7 170 3 4 15
7 25 7 17 0 18 -12 18 -170z m820 0 l0 -170 -25 0 -25 0 0 170 0 170 25 0 25
0 0 -170z m109 157 c6 -8 17 -40 26 -73 22 -84 49 -157 60 -161 6 -1 21 32 34
75 26 81 29 88 52 137 14 28 59 49 59 27 0 -5 -14 -47 -31 -93 -17 -46 -37
-102 -45 -125 -35 -103 -43 -115 -72 -112 -25 3 -30 13 -79 158 -29 85 -52
161 -53 168 0 16 35 16 49 -1z m339 -159 l2 -168 -25 0 -25 0 0 171 0 170 23
-3 c22 -3 22 -5 25 -170z m490 -1 l2 -167 -25 0 -25 0 0 163 c0 90 3 167 7
171 4 4 14 5 23 4 13 -3 15 -29 18 -171z m141 156 c9 -17 11 -17 39 0 32 18
77 23 86 8 12 -20 -7 -39 -44 -45 -57 -9 -71 -36 -76 -148 -2 -51 -4 -103 -4
-115 0 -16 -6 -23 -20 -23 -19 0 -20 7 -20 170 0 142 2 170 15 170 7 0 18 -8
24 -17z m251 -298 c0 -20 -5 -25 -25 -25 -20 0 -25 5 -25 25 0 20 5 25 25 25
20 0 25 -5 25 -25z"/>
<path d="M8005 4515 c-21 -20 -25 -34 -25 -85 0 -51 4 -65 25 -85 63 -63 140
2 127 107 -5 44 -44 88 -79 88 -13 0 -35 -11 -48 -25z"/>
<path d="M3155 4529 c-25 -12 -48 -46 -40 -59 9 -14 162 -13 171 2 4 6 -6 23
-25 40 -33 29 -69 35 -106 17z"/>
<path d="M4277 4401 c-57 -8 -87 -33 -71 -59 21 -33 89 -28 124 10 22 24 27
59 8 57 -7 -1 -34 -5 -61 -8z"/>
<path d="M5010 4400 c-65 -10 -89 -33 -63 -62 23 -26 70 -22 110 8 32 24 46
65 21 63 -7 -1 -38 -5 -68 -9z"/>
<path d="M5610 4510 c-17 -16 -29 -34 -25 -40 3 -5 44 -10 91 -10 94 0 106 11
58 55 -38 35 -83 33 -124 -5z"/>
<path d="M6387 4514 c-24 -23 -27 -35 -27 -89 0 -51 4 -65 23 -83 59 -55 137
-6 137 86 0 91 -78 141 -133 86z"/>
<path d="M8407 4401 c-89 -13 -105 -73 -20 -79 32 -2 44 2 66 24 28 28 36 65
15 63 -7 -1 -34 -5 -61 -8z"/>
<path d="M6820 4409 c-8 -5 -31 -9 -50 -9 -35 0 -80 -23 -80 -40 0 -19 33 -40
65 -40 39 0 95 42 95 70 0 24 -12 31 -30 19z"/>
<path d="M7469 4510 c-17 -16 -28 -34 -24 -40 3 -5 44 -10 91 -10 76 0 84 2
84 19 0 28 -47 61 -87 61 -25 0 -43 -8 -64 -30z"/>
<path d="M6721 3784 c-29 -24 -31 -31 -31 -89 0 -54 3 -66 26 -89 15 -14 35
-26 46 -26 95 0 122 177 33 218 -35 16 -39 16 -74 -14z"/>
<path d="M7409 3781 c-25 -25 -29 -37 -29 -84 0 -47 4 -60 29 -86 16 -17 39
-31 50 -31 88 0 120 150 44 209 -35 28 -59 26 -94 -8z"/>
<path d="M3090 3787 c-58 -46 -48 -159 16 -193 31 -17 36 -17 67 -2 25 12 36
26 45 56 20 65 12 106 -28 139 -19 16 -81 16 -100 0z"/>
<path d="M4170 3670 c-8 -5 -31 -10 -51 -10 -24 0 -42 -7 -55 -21 -19 -21 -18
-21 5 -40 13 -10 32 -19 43 -19 28 0 76 27 88 49 22 42 6 64 -30 41z"/>
<path d="M4953 3785 c-58 -40 -48 -163 14 -193 31 -15 36 -15 67 2 26 14 37
29 46 62 14 50 9 80 -21 117 -24 31 -71 36 -106 12z"/>
<path d="M7155 3670 c-11 -5 -36 -9 -56 -9 -42 -1 -64 -21 -54 -50 13 -43 89
-39 131 6 41 45 29 75 -21 53z"/>
<path d="M7770 3788 c-19 -13 -35 -32 -35 -42 0 -16 10 -19 70 -21 108 -5 129
9 82 53 -36 34 -76 37 -117 10z"/>
<path d="M8059 3051 c-26 -26 -29 -36 -29 -91 0 -55 3 -65 29 -91 18 -17 40
-29 56 -29 16 0 38 12 56 29 25 26 29 37 29 88 0 61 -15 91 -57 112 -34 17
-52 13 -84 -18z"/>
<path d="M9024 3070 c-35 -14 -54 -50 -54 -103 0 -90 50 -142 112 -116 38 16
58 56 58 118 0 38 -6 56 -22 75 -26 29 -63 39 -94 26z"/>
<path d="M4320 2940 c-8 -5 -29 -10 -46 -10 -30 0 -64 -25 -64 -48 0 -22 49
-45 82 -38 66 13 123 106 66 106 -13 0 -30 -5 -38 -10z"/>
<path d="M4975 3044 c-24 -26 -30 -54 -25 -114 4 -61 66 -102 120 -80 70 29
83 160 21 207 -30 23 -89 16 -116 -13z"/>
<path d="M5895 2938 c-69 -13 -80 -21 -80 -54 0 -22 6 -31 26 -38 54 -19 129
27 129 79 0 27 0 27 -75 13z"/>
<path d="M6190 3051 c-52 -51 -52 -131 0 -183 43 -42 95 -33 130 24 37 60 23
140 -30 171 -40 24 -68 21 -100 -12z"/>
<path d="M6970 2938 c-30 -6 -61 -15 -67 -20 -32 -26 2 -78 51 -78 57 0 117
56 103 94 -7 18 -9 18 -87 4z"/>
<path d="M3190 2675 c-212 -30 -463 -102 -647 -186 -26 -12 -76 -35 -111 -50
-101 -46 -359 -191 -581 -328 -113 -70 -280 -172 -371 -226 -854 -511 -1237
-919 -1380 -1468 -25 -96 -67 -403 -57 -413 2 -2 1735 -3 3850 -2 l3846 3
-107 86 c-59 47 -192 153 -297 234 -433 338 -563 447 -1170 981 -764 671
-1254 1008 -1757 1204 -204 80 -472 147 -680 169 -131 15 -421 12 -538 -4z"/>
</g>
</svg>
