<svg width="1029" height="838" viewBox="0 0 1029 838" fill="none" xmlns="http://www.w3.org/2000/svg">
<rect x="53" width="976" height="810" fill="#414141"/>
<path fill-rule="evenodd" clip-rule="evenodd" d="M611.124 642.859C529.212 621.849 404.946 686.447 344.084 628.852C281.51 569.637 272.785 474.801 279.726 392.644C286.368 314.029 332.275 247.999 381.489 186.131C430.89 124.029 480.25 45.9327 562.409 37.282C643.551 28.7385 708.262 101.667 778.677 144.31C832.604 176.968 884.424 208.788 924.396 256.5C967.34 307.76 1013.66 362.579 1015.62 427.141C1017.62 492.797 1026.02 523.252 987.899 576.484C947.581 632.786 912.968 702.479 843.116 718.881C773.599 735.205 681.484 660.906 611.124 642.859Z" stroke="#1CDC6E" stroke-width="2"/>
<path d="M270.363 503H262.746L247.918 478.676V503H240.301V466.031H247.918L262.771 490.406V466.031H270.363V503ZM292.986 500.207C291.175 502.408 288.67 503.508 285.471 503.508C282.525 503.508 280.274 502.661 278.717 500.969C277.176 499.276 276.389 496.796 276.355 493.529V475.527H283.693V493.275C283.693 496.136 284.997 497.566 287.604 497.566C290.092 497.566 291.801 496.703 292.732 494.977V475.527H300.096V503H293.189L292.986 500.207ZM312.385 475.527L312.613 478.701C314.577 476.247 317.209 475.02 320.51 475.02C323.421 475.02 325.588 475.874 327.01 477.584C328.432 479.294 329.16 481.85 329.193 485.252V503H321.855V485.43C321.855 483.872 321.517 482.747 320.84 482.053C320.163 481.342 319.037 480.986 317.463 480.986C315.398 480.986 313.849 481.867 312.816 483.627V503H305.479V475.527H312.385ZM346.205 497.592C347.559 497.592 348.66 497.219 349.506 496.475C350.352 495.73 350.792 494.74 350.826 493.504H357.707C357.69 495.366 357.182 497.076 356.184 498.633C355.185 500.173 353.814 501.375 352.07 502.238C350.344 503.085 348.431 503.508 346.332 503.508C342.405 503.508 339.307 502.264 337.039 499.775C334.771 497.27 333.637 493.817 333.637 489.416V488.934C333.637 484.702 334.762 481.325 337.014 478.803C339.265 476.281 342.354 475.02 346.281 475.02C349.717 475.02 352.468 476.001 354.533 477.965C356.615 479.911 357.673 482.51 357.707 485.76H350.826C350.792 484.338 350.352 483.187 349.506 482.307C348.66 481.41 347.542 480.961 346.154 480.961C344.445 480.961 343.15 481.587 342.27 482.84C341.406 484.076 340.975 486.09 340.975 488.883V489.645C340.975 492.471 341.406 494.503 342.27 495.738C343.133 496.974 344.445 497.592 346.205 497.592ZM377.816 503C377.478 502.34 377.232 501.519 377.08 500.537C375.303 502.518 372.992 503.508 370.148 503.508C367.457 503.508 365.223 502.729 363.445 501.172C361.685 499.615 360.805 497.651 360.805 495.281C360.805 492.37 361.88 490.135 364.029 488.578C366.196 487.021 369.319 486.234 373.398 486.217H376.775V484.643C376.775 483.373 376.445 482.357 375.785 481.596C375.142 480.834 374.118 480.453 372.713 480.453C371.477 480.453 370.504 480.749 369.793 481.342C369.099 481.934 368.752 482.747 368.752 483.779H361.414C361.414 482.188 361.905 480.715 362.887 479.361C363.868 478.007 365.257 476.949 367.051 476.188C368.845 475.409 370.859 475.02 373.094 475.02C376.479 475.02 379.162 475.874 381.143 477.584C383.14 479.277 384.139 481.663 384.139 484.744V496.652C384.156 499.259 384.52 501.231 385.23 502.568V503H377.816ZM371.748 497.896C372.831 497.896 373.83 497.66 374.744 497.186C375.658 496.695 376.335 496.043 376.775 495.23V490.508H374.033C370.36 490.508 368.405 491.777 368.168 494.316L368.143 494.748C368.143 495.662 368.464 496.415 369.107 497.008C369.751 497.6 370.631 497.896 371.748 497.896ZM404.73 503V480.91H400.643V475.527H404.73V473.191C404.73 470.111 405.611 467.724 407.371 466.031C409.148 464.322 411.628 463.467 414.811 463.467C415.826 463.467 417.07 463.636 418.543 463.975L418.467 469.662C417.857 469.51 417.113 469.434 416.232 469.434C413.473 469.434 412.094 470.729 412.094 473.318V475.527H417.553V480.91H412.094V503H404.73ZM420.219 489.01C420.219 486.285 420.743 483.855 421.793 481.723C422.842 479.59 424.349 477.939 426.312 476.771C428.293 475.604 430.587 475.02 433.193 475.02C436.9 475.02 439.922 476.154 442.258 478.422C444.611 480.69 445.923 483.771 446.193 487.664L446.244 489.543C446.244 493.758 445.068 497.143 442.715 499.699C440.362 502.238 437.205 503.508 433.244 503.508C429.283 503.508 426.118 502.238 423.748 499.699C421.395 497.16 420.219 493.707 420.219 489.34V489.01ZM427.557 489.543C427.557 492.15 428.048 494.147 429.029 495.535C430.011 496.906 431.416 497.592 433.244 497.592C435.021 497.592 436.41 496.915 437.408 495.561C438.407 494.189 438.906 492.006 438.906 489.01C438.906 486.454 438.407 484.473 437.408 483.068C436.41 481.663 435.005 480.961 433.193 480.961C431.399 480.961 430.011 481.663 429.029 483.068C428.048 484.456 427.557 486.615 427.557 489.543ZM458.508 503H451.145V475.527H458.508V503ZM450.713 468.418C450.713 467.318 451.077 466.412 451.805 465.701C452.549 464.99 453.557 464.635 454.826 464.635C456.079 464.635 457.077 464.99 457.822 465.701C458.567 466.412 458.939 467.318 458.939 468.418C458.939 469.535 458.559 470.449 457.797 471.16C457.052 471.871 456.062 472.227 454.826 472.227C453.59 472.227 452.592 471.871 451.83 471.16C451.085 470.449 450.713 469.535 450.713 468.418ZM486.311 468.773V475.527H491.008V480.91H486.311V494.621C486.311 495.637 486.505 496.365 486.895 496.805C487.284 497.245 488.029 497.465 489.129 497.465C489.941 497.465 490.661 497.406 491.287 497.287V502.848C489.848 503.288 488.367 503.508 486.844 503.508C481.698 503.508 479.074 500.91 478.973 495.713V480.91H474.961V475.527H478.973V468.773H486.311ZM511.016 503C510.677 502.34 510.432 501.519 510.279 500.537C508.502 502.518 506.191 503.508 503.348 503.508C500.656 503.508 498.422 502.729 496.645 501.172C494.884 499.615 494.004 497.651 494.004 495.281C494.004 492.37 495.079 490.135 497.229 488.578C499.395 487.021 502.518 486.234 506.598 486.217H509.975V484.643C509.975 483.373 509.645 482.357 508.984 481.596C508.341 480.834 507.317 480.453 505.912 480.453C504.676 480.453 503.703 480.749 502.992 481.342C502.298 481.934 501.951 482.747 501.951 483.779H494.613C494.613 482.188 495.104 480.715 496.086 479.361C497.068 478.007 498.456 476.949 500.25 476.188C502.044 475.409 504.059 475.02 506.293 475.02C509.678 475.02 512.361 475.874 514.342 477.584C516.339 479.277 517.338 481.663 517.338 484.744V496.652C517.355 499.259 517.719 501.231 518.43 502.568V503H511.016ZM504.947 497.896C506.031 497.896 507.029 497.66 507.943 497.186C508.857 496.695 509.535 496.043 509.975 495.23V490.508H507.232C503.559 490.508 501.604 491.777 501.367 494.316L501.342 494.748C501.342 495.662 501.663 496.415 502.307 497.008C502.95 497.6 503.83 497.896 504.947 497.896ZM515.814 464.33C515.814 466.243 515.256 467.851 514.139 469.154C513.021 470.441 511.659 471.084 510.051 471.084C509.408 471.084 508.832 471.016 508.324 470.881C507.833 470.729 507.148 470.415 506.268 469.941C505.387 469.467 504.753 469.18 504.363 469.078C503.974 468.96 503.551 468.9 503.094 468.9C502.501 468.9 501.993 469.112 501.57 469.535C501.164 469.958 500.961 470.559 500.961 471.338L496.695 471.084C496.695 469.205 497.245 467.605 498.346 466.285C499.463 464.965 500.826 464.305 502.434 464.305C502.941 464.305 503.415 464.372 503.855 464.508C504.312 464.626 505.049 464.931 506.064 465.422C507.08 465.913 507.783 466.209 508.172 466.311C508.561 466.412 508.967 466.463 509.391 466.463C509.983 466.463 510.491 466.26 510.914 465.854C511.354 465.43 511.574 464.829 511.574 464.051L515.814 464.33ZM521.832 489.01C521.832 486.285 522.357 483.855 523.406 481.723C524.456 479.59 525.962 477.939 527.926 476.771C529.906 475.604 532.2 475.02 534.807 475.02C538.514 475.02 541.535 476.154 543.871 478.422C546.224 480.69 547.536 483.771 547.807 487.664L547.857 489.543C547.857 493.758 546.681 497.143 544.328 499.699C541.975 502.238 538.818 503.508 534.857 503.508C530.896 503.508 527.731 502.238 525.361 499.699C523.008 497.16 521.832 493.707 521.832 489.34V489.01ZM529.17 489.543C529.17 492.15 529.661 494.147 530.643 495.535C531.624 496.906 533.029 497.592 534.857 497.592C536.635 497.592 538.023 496.915 539.021 495.561C540.02 494.189 540.52 492.006 540.52 489.01C540.52 486.454 540.02 484.473 539.021 483.068C538.023 481.663 536.618 480.961 534.807 480.961C533.012 480.961 531.624 481.663 530.643 483.068C529.661 484.456 529.17 486.615 529.17 489.543ZM567.332 503V480.91H563.244V475.527H567.332V473.191C567.332 470.111 568.212 467.724 569.973 466.031C571.75 464.322 574.23 463.467 577.412 463.467C578.428 463.467 579.672 463.636 581.145 463.975L581.068 469.662C580.459 469.51 579.714 469.434 578.834 469.434C576.075 469.434 574.695 470.729 574.695 473.318V475.527H580.154V480.91H574.695V503H567.332ZM599.883 503C599.544 502.34 599.299 501.519 599.146 500.537C597.369 502.518 595.059 503.508 592.215 503.508C589.523 503.508 587.289 502.729 585.512 501.172C583.751 499.615 582.871 497.651 582.871 495.281C582.871 492.37 583.946 490.135 586.096 488.578C588.262 487.021 591.385 486.234 595.465 486.217H598.842V484.643C598.842 483.373 598.512 482.357 597.852 481.596C597.208 480.834 596.184 480.453 594.779 480.453C593.544 480.453 592.57 480.749 591.859 481.342C591.165 481.934 590.818 482.747 590.818 483.779H583.48C583.48 482.188 583.971 480.715 584.953 479.361C585.935 478.007 587.323 476.949 589.117 476.188C590.911 475.409 592.926 475.02 595.16 475.02C598.546 475.02 601.229 475.874 603.209 477.584C605.206 479.277 606.205 481.663 606.205 484.744V496.652C606.222 499.259 606.586 501.231 607.297 502.568V503H599.883ZM593.814 497.896C594.898 497.896 595.896 497.66 596.811 497.186C597.725 496.695 598.402 496.043 598.842 495.23V490.508H596.1C592.426 490.508 590.471 491.777 590.234 494.316L590.209 494.748C590.209 495.662 590.531 496.415 591.174 497.008C591.817 497.6 592.697 497.896 593.814 497.896ZM596.607 464H604.605L597.572 471.871H591.605L596.607 464ZM623.268 497.592C624.622 497.592 625.722 497.219 626.568 496.475C627.415 495.73 627.855 494.74 627.889 493.504H634.77C634.753 495.366 634.245 497.076 633.246 498.633C632.247 500.173 630.876 501.375 629.133 502.238C627.406 503.085 625.493 503.508 623.395 503.508C619.467 503.508 616.37 502.264 614.102 499.775C611.833 497.27 610.699 493.817 610.699 489.416V488.934C610.699 484.702 611.825 481.325 614.076 478.803C616.327 476.281 619.417 475.02 623.344 475.02C626.78 475.02 629.531 476.001 631.596 477.965C633.678 479.911 634.736 482.51 634.77 485.76H627.889C627.855 484.338 627.415 483.187 626.568 482.307C625.722 481.41 624.605 480.961 623.217 480.961C621.507 480.961 620.212 481.587 619.332 482.84C618.469 484.076 618.037 486.09 618.037 488.883V489.645C618.037 492.471 618.469 494.503 619.332 495.738C620.195 496.974 621.507 497.592 623.268 497.592ZM646.703 503H639.34V475.527H646.703V503ZM638.908 468.418C638.908 467.318 639.272 466.412 640 465.701C640.745 464.99 641.752 464.635 643.021 464.635C644.274 464.635 645.273 464.99 646.018 465.701C646.762 466.412 647.135 467.318 647.135 468.418C647.135 469.535 646.754 470.449 645.992 471.16C645.247 471.871 644.257 472.227 643.021 472.227C641.786 472.227 640.787 471.871 640.025 471.16C639.281 470.449 638.908 469.535 638.908 468.418ZM660.516 503H653.152V464H660.516V503ZM678.391 489.061C678.391 484.778 679.347 481.367 681.26 478.828C683.189 476.289 685.822 475.02 689.156 475.02C691.831 475.02 694.04 476.018 695.783 478.016V464H703.146V503H696.52L696.164 500.08C694.336 502.365 691.983 503.508 689.105 503.508C685.872 503.508 683.274 502.238 681.311 499.699C679.364 497.143 678.391 493.597 678.391 489.061ZM685.729 489.594C685.729 492.167 686.177 494.139 687.074 495.51C687.971 496.881 689.275 497.566 690.984 497.566C693.253 497.566 694.852 496.61 695.783 494.697V483.855C694.869 481.943 693.286 480.986 691.035 480.986C687.497 480.986 685.729 483.855 685.729 489.594ZM716.578 503H709.215V475.527H716.578V503ZM708.783 468.418C708.783 467.318 709.147 466.412 709.875 465.701C710.62 464.99 711.627 464.635 712.896 464.635C714.149 464.635 715.148 464.99 715.893 465.701C716.637 466.412 717.01 467.318 717.01 468.418C717.01 469.535 716.629 470.449 715.867 471.16C715.122 471.871 714.132 472.227 712.896 472.227C711.661 472.227 710.662 471.871 709.9 471.16C709.156 470.449 708.783 469.535 708.783 468.418ZM732.93 494.037L738.033 475.527H745.701L736.434 503H729.426L720.158 475.527H727.826L732.93 494.037ZM756.695 503H749.332V475.527H756.695V503ZM748.9 468.418C748.9 467.318 749.264 466.412 749.992 465.701C750.737 464.99 751.744 464.635 753.014 464.635C754.266 464.635 755.265 464.99 756.01 465.701C756.755 466.412 757.127 467.318 757.127 468.418C757.127 469.535 756.746 470.449 755.984 471.16C755.24 471.871 754.249 472.227 753.014 472.227C751.778 472.227 750.779 471.871 750.018 471.16C749.273 470.449 748.9 469.535 748.9 468.418ZM761.621 489.061C761.621 484.778 762.577 481.367 764.49 478.828C766.42 476.289 769.052 475.02 772.387 475.02C775.061 475.02 777.27 476.018 779.014 478.016V464H786.377V503H779.75L779.395 500.08C777.566 502.365 775.214 503.508 772.336 503.508C769.103 503.508 766.505 502.238 764.541 499.699C762.594 497.143 761.621 493.597 761.621 489.061ZM768.959 489.594C768.959 492.167 769.408 494.139 770.305 495.51C771.202 496.881 772.505 497.566 774.215 497.566C776.483 497.566 778.083 496.61 779.014 494.697V483.855C778.1 481.943 776.517 480.986 774.266 480.986C770.728 480.986 768.959 483.855 768.959 489.594ZM799.809 503H792.445V475.527H799.809V503ZM792.014 468.418C792.014 467.318 792.378 466.412 793.105 465.701C793.85 464.99 794.857 464.635 796.127 464.635C797.38 464.635 798.378 464.99 799.123 465.701C799.868 466.412 800.24 467.318 800.24 468.418C800.24 469.535 799.859 470.449 799.098 471.16C798.353 471.871 797.363 472.227 796.127 472.227C794.891 472.227 793.893 471.871 793.131 471.16C792.386 470.449 792.014 469.535 792.014 468.418ZM821.314 482.408C820.316 482.273 819.436 482.205 818.674 482.205C815.898 482.205 814.078 483.145 813.215 485.023V503H805.877V475.527H812.809L813.012 478.803C814.484 476.281 816.524 475.02 819.131 475.02C819.943 475.02 820.705 475.13 821.416 475.35L821.314 482.408ZM820.832 499.395C820.832 498.227 821.221 497.279 822 496.551C822.796 495.823 823.786 495.459 824.971 495.459C826.173 495.459 827.163 495.823 827.941 496.551C828.737 497.279 829.135 498.227 829.135 499.395C829.135 500.546 828.745 501.485 827.967 502.213C827.188 502.924 826.189 503.279 824.971 503.279C823.769 503.279 822.779 502.924 822 502.213C821.221 501.485 820.832 500.546 820.832 499.395Z" fill="#1CDC6E"/>
<path d="M252.656 359.539L260.391 333.875H268.219L256.336 368H249L237.164 333.875H244.969L252.656 359.539ZM281.648 368.469C277.93 368.469 274.898 367.328 272.555 365.047C270.227 362.766 269.062 359.727 269.062 355.93V355.273C269.062 352.727 269.555 350.453 270.539 348.453C271.523 346.438 272.914 344.891 274.711 343.812C276.523 342.719 278.586 342.172 280.898 342.172C284.367 342.172 287.094 343.266 289.078 345.453C291.078 347.641 292.078 350.742 292.078 354.758V357.523H275.93C276.148 359.18 276.805 360.508 277.898 361.508C279.008 362.508 280.406 363.008 282.094 363.008C284.703 363.008 286.742 362.062 288.211 360.172L291.539 363.898C290.523 365.336 289.148 366.461 287.414 367.273C285.68 368.07 283.758 368.469 281.648 368.469ZM280.875 347.656C279.531 347.656 278.438 348.109 277.594 349.016C276.766 349.922 276.234 351.219 276 352.906H285.422V352.367C285.391 350.867 284.984 349.711 284.203 348.898C283.422 348.07 282.312 347.656 280.875 347.656ZM302.18 342.641L302.391 345.57C304.203 343.305 306.633 342.172 309.68 342.172C312.367 342.172 314.367 342.961 315.68 344.539C316.992 346.117 317.664 348.477 317.695 351.617V368H310.922V351.781C310.922 350.344 310.609 349.305 309.984 348.664C309.359 348.008 308.32 347.68 306.867 347.68C304.961 347.68 303.531 348.492 302.578 350.117V368H295.805V342.641H302.18ZM329.461 345.406C331.258 343.25 333.516 342.172 336.234 342.172C341.734 342.172 344.523 345.367 344.602 351.758V368H337.828V351.945C337.828 350.492 337.516 349.422 336.891 348.734C336.266 348.031 335.227 347.68 333.773 347.68C331.789 347.68 330.352 348.445 329.461 349.977V368H322.688V332H329.461V345.406ZM364.406 368C364.094 367.391 363.867 366.633 363.727 365.727C362.086 367.555 359.953 368.469 357.328 368.469C354.844 368.469 352.781 367.75 351.141 366.312C349.516 364.875 348.703 363.062 348.703 360.875C348.703 358.188 349.695 356.125 351.68 354.688C353.68 353.25 356.562 352.523 360.328 352.508H363.445V351.055C363.445 349.883 363.141 348.945 362.531 348.242C361.938 347.539 360.992 347.188 359.695 347.188C358.555 347.188 357.656 347.461 357 348.008C356.359 348.555 356.039 349.305 356.039 350.258H349.266C349.266 348.789 349.719 347.43 350.625 346.18C351.531 344.93 352.812 343.953 354.469 343.25C356.125 342.531 357.984 342.172 360.047 342.172C363.172 342.172 365.648 342.961 367.477 344.539C369.32 346.102 370.242 348.305 370.242 351.148V362.141C370.258 364.547 370.594 366.367 371.25 367.602V368H364.406ZM358.805 363.289C359.805 363.289 360.727 363.07 361.57 362.633C362.414 362.18 363.039 361.578 363.445 360.828V356.469H360.914C357.523 356.469 355.719 357.641 355.5 359.984L355.477 360.383C355.477 361.227 355.773 361.922 356.367 362.469C356.961 363.016 357.773 363.289 358.805 363.289ZM389.25 368V347.609H385.477V342.641H389.25V340.484C389.25 337.641 390.062 335.438 391.688 333.875C393.328 332.297 395.617 331.508 398.555 331.508C399.492 331.508 400.641 331.664 402 331.977L401.93 337.227C401.367 337.086 400.68 337.016 399.867 337.016C397.32 337.016 396.047 338.211 396.047 340.602V342.641H401.086V347.609H396.047V368H389.25ZM419.297 368C418.984 367.391 418.758 366.633 418.617 365.727C416.977 367.555 414.844 368.469 412.219 368.469C409.734 368.469 407.672 367.75 406.031 366.312C404.406 364.875 403.594 363.062 403.594 360.875C403.594 358.188 404.586 356.125 406.57 354.688C408.57 353.25 411.453 352.523 415.219 352.508H418.336V351.055C418.336 349.883 418.031 348.945 417.422 348.242C416.828 347.539 415.883 347.188 414.586 347.188C413.445 347.188 412.547 347.461 411.891 348.008C411.25 348.555 410.93 349.305 410.93 350.258H404.156C404.156 348.789 404.609 347.43 405.516 346.18C406.422 344.93 407.703 343.953 409.359 343.25C411.016 342.531 412.875 342.172 414.938 342.172C418.062 342.172 420.539 342.961 422.367 344.539C424.211 346.102 425.133 348.305 425.133 351.148V362.141C425.148 364.547 425.484 366.367 426.141 367.602V368H419.297ZM413.695 363.289C414.695 363.289 415.617 363.07 416.461 362.633C417.305 362.18 417.93 361.578 418.336 360.828V356.469H415.805C412.414 356.469 410.609 357.641 410.391 359.984L410.367 360.383C410.367 361.227 410.664 361.922 411.258 362.469C411.852 363.016 412.664 363.289 413.695 363.289ZM438.117 362.539H450.516V368H429.469V363.875L441.398 348.125H429.82V342.641H450.141V346.648L438.117 362.539ZM466.055 368.469C462.336 368.469 459.305 367.328 456.961 365.047C454.633 362.766 453.469 359.727 453.469 355.93V355.273C453.469 352.727 453.961 350.453 454.945 348.453C455.93 346.438 457.32 344.891 459.117 343.812C460.93 342.719 462.992 342.172 465.305 342.172C468.773 342.172 471.5 343.266 473.484 345.453C475.484 347.641 476.484 350.742 476.484 354.758V357.523H460.336C460.555 359.18 461.211 360.508 462.305 361.508C463.414 362.508 464.812 363.008 466.5 363.008C469.109 363.008 471.148 362.062 472.617 360.172L475.945 363.898C474.93 365.336 473.555 366.461 471.82 367.273C470.086 368.07 468.164 368.469 466.055 368.469ZM465.281 347.656C463.938 347.656 462.844 348.109 462 349.016C461.172 349.922 460.641 351.219 460.406 352.906H469.828V352.367C469.797 350.867 469.391 349.711 468.609 348.898C467.828 348.07 466.719 347.656 465.281 347.656ZM494.602 348.992C493.68 348.867 492.867 348.805 492.164 348.805C489.602 348.805 487.922 349.672 487.125 351.406V368H480.352V342.641H486.75L486.938 345.664C488.297 343.336 490.18 342.172 492.586 342.172C493.336 342.172 494.039 342.273 494.695 342.477L494.602 348.992ZM532.664 355.555C532.664 359.461 531.773 362.594 529.992 364.953C528.227 367.297 525.836 368.469 522.82 368.469C520.258 368.469 518.188 367.578 516.609 365.797V377.75H509.836V342.641H516.117L516.352 345.125C517.992 343.156 520.133 342.172 522.773 342.172C525.898 342.172 528.328 343.328 530.062 345.641C531.797 347.953 532.664 351.141 532.664 355.203V355.555ZM525.891 355.062C525.891 352.703 525.469 350.883 524.625 349.602C523.797 348.32 522.586 347.68 520.992 347.68C518.867 347.68 517.406 348.492 516.609 350.117V360.5C517.438 362.172 518.914 363.008 521.039 363.008C524.273 363.008 525.891 360.359 525.891 355.062ZM551.578 368C551.266 367.391 551.039 366.633 550.898 365.727C549.258 367.555 547.125 368.469 544.5 368.469C542.016 368.469 539.953 367.75 538.312 366.312C536.688 364.875 535.875 363.062 535.875 360.875C535.875 358.188 536.867 356.125 538.852 354.688C540.852 353.25 543.734 352.523 547.5 352.508H550.617V351.055C550.617 349.883 550.312 348.945 549.703 348.242C549.109 347.539 548.164 347.188 546.867 347.188C545.727 347.188 544.828 347.461 544.172 348.008C543.531 348.555 543.211 349.305 543.211 350.258H536.438C536.438 348.789 536.891 347.43 537.797 346.18C538.703 344.93 539.984 343.953 541.641 343.25C543.297 342.531 545.156 342.172 547.219 342.172C550.344 342.172 552.82 342.961 554.648 344.539C556.492 346.102 557.414 348.305 557.414 351.148V362.141C557.43 364.547 557.766 366.367 558.422 367.602V368H551.578ZM545.977 363.289C546.977 363.289 547.898 363.07 548.742 362.633C549.586 362.18 550.211 361.578 550.617 360.828V356.469H548.086C544.695 356.469 542.891 357.641 542.672 359.984L542.648 360.383C542.648 361.227 542.945 361.922 543.539 362.469C544.133 363.016 544.945 363.289 545.977 363.289ZM576.867 348.992C575.945 348.867 575.133 348.805 574.43 348.805C571.867 348.805 570.188 349.672 569.391 351.406V368H562.617V342.641H569.016L569.203 345.664C570.562 343.336 572.445 342.172 574.852 342.172C575.602 342.172 576.305 342.273 576.961 342.477L576.867 348.992ZM589.43 336.406V342.641H593.766V347.609H589.43V360.266C589.43 361.203 589.609 361.875 589.969 362.281C590.328 362.688 591.016 362.891 592.031 362.891C592.781 362.891 593.445 362.836 594.023 362.727V367.859C592.695 368.266 591.328 368.469 589.922 368.469C585.172 368.469 582.75 366.07 582.656 361.273V347.609H578.953V342.641H582.656V336.406H589.43ZM609.211 368.469C605.492 368.469 602.461 367.328 600.117 365.047C597.789 362.766 596.625 359.727 596.625 355.93V355.273C596.625 352.727 597.117 350.453 598.102 348.453C599.086 346.438 600.477 344.891 602.273 343.812C604.086 342.719 606.148 342.172 608.461 342.172C611.93 342.172 614.656 343.266 616.641 345.453C618.641 347.641 619.641 350.742 619.641 354.758V357.523H603.492C603.711 359.18 604.367 360.508 605.461 361.508C606.57 362.508 607.969 363.008 609.656 363.008C612.266 363.008 614.305 362.062 615.773 360.172L619.102 363.898C618.086 365.336 616.711 366.461 614.977 367.273C613.242 368.07 611.32 368.469 609.211 368.469ZM608.438 347.656C607.094 347.656 606 348.109 605.156 349.016C604.328 349.922 603.797 351.219 603.562 352.906H612.984V352.367C612.953 350.867 612.547 349.711 611.766 348.898C610.984 348.07 609.875 347.656 608.438 347.656ZM634.406 355.133C634.406 351.18 635.289 348.031 637.055 345.688C638.836 343.344 641.266 342.172 644.344 342.172C646.812 342.172 648.852 343.094 650.461 344.938V332H657.258V368H651.141L650.812 365.305C649.125 367.414 646.953 368.469 644.297 368.469C641.312 368.469 638.914 367.297 637.102 364.953C635.305 362.594 634.406 359.32 634.406 355.133ZM641.18 355.625C641.18 358 641.594 359.82 642.422 361.086C643.25 362.352 644.453 362.984 646.031 362.984C648.125 362.984 649.602 362.102 650.461 360.336V350.328C649.617 348.562 648.156 347.68 646.078 347.68C642.812 347.68 641.18 350.328 641.18 355.625ZM677.203 368C676.891 367.391 676.664 366.633 676.523 365.727C674.883 367.555 672.75 368.469 670.125 368.469C667.641 368.469 665.578 367.75 663.938 366.312C662.312 364.875 661.5 363.062 661.5 360.875C661.5 358.188 662.492 356.125 664.477 354.688C666.477 353.25 669.359 352.523 673.125 352.508H676.242V351.055C676.242 349.883 675.938 348.945 675.328 348.242C674.734 347.539 673.789 347.188 672.492 347.188C671.352 347.188 670.453 347.461 669.797 348.008C669.156 348.555 668.836 349.305 668.836 350.258H662.062C662.062 348.789 662.516 347.43 663.422 346.18C664.328 344.93 665.609 343.953 667.266 343.25C668.922 342.531 670.781 342.172 672.844 342.172C675.969 342.172 678.445 342.961 680.273 344.539C682.117 346.102 683.039 348.305 683.039 351.148V362.141C683.055 364.547 683.391 366.367 684.047 367.602V368H677.203ZM671.602 363.289C672.602 363.289 673.523 363.07 674.367 362.633C675.211 362.18 675.836 361.578 676.242 360.828V356.469H673.711C670.32 356.469 668.516 357.641 668.297 359.984L668.273 360.383C668.273 361.227 668.57 361.922 669.164 362.469C669.758 363.016 670.57 363.289 671.602 363.289ZM706.43 342.641L706.641 345.57C708.453 343.305 710.883 342.172 713.93 342.172C716.617 342.172 718.617 342.961 719.93 344.539C721.242 346.117 721.914 348.477 721.945 351.617V368H715.172V351.781C715.172 350.344 714.859 349.305 714.234 348.664C713.609 348.008 712.57 347.68 711.117 347.68C709.211 347.68 707.781 348.492 706.828 350.117V368H700.055V342.641H706.43ZM726.047 355.086C726.047 352.57 726.531 350.328 727.5 348.359C728.469 346.391 729.859 344.867 731.672 343.789C733.5 342.711 735.617 342.172 738.023 342.172C741.445 342.172 744.234 343.219 746.391 345.312C748.562 347.406 749.773 350.25 750.023 353.844L750.07 355.578C750.07 359.469 748.984 362.594 746.812 364.953C744.641 367.297 741.727 368.469 738.07 368.469C734.414 368.469 731.492 367.297 729.305 364.953C727.133 362.609 726.047 359.422 726.047 355.391V355.086ZM732.82 355.578C732.82 357.984 733.273 359.828 734.18 361.109C735.086 362.375 736.383 363.008 738.07 363.008C739.711 363.008 740.992 362.383 741.914 361.133C742.836 359.867 743.297 357.852 743.297 355.086C743.297 352.727 742.836 350.898 741.914 349.602C740.992 348.305 739.695 347.656 738.023 347.656C736.367 347.656 735.086 348.305 734.18 349.602C733.273 350.883 732.82 352.875 732.82 355.578ZM767.977 360.992C767.977 360.164 767.562 359.516 766.734 359.047C765.922 358.562 764.609 358.133 762.797 357.758C756.766 356.492 753.75 353.93 753.75 350.07C753.75 347.82 754.68 345.945 756.539 344.445C758.414 342.93 760.859 342.172 763.875 342.172C767.094 342.172 769.664 342.93 771.586 344.445C773.523 345.961 774.492 347.93 774.492 350.352H767.719C767.719 349.383 767.406 348.586 766.781 347.961C766.156 347.32 765.18 347 763.852 347C762.711 347 761.828 347.258 761.203 347.773C760.578 348.289 760.266 348.945 760.266 349.742C760.266 350.492 760.617 351.102 761.32 351.57C762.039 352.023 763.242 352.422 764.93 352.766C766.617 353.094 768.039 353.469 769.195 353.891C772.773 355.203 774.562 357.477 774.562 360.711C774.562 363.023 773.57 364.898 771.586 366.336C769.602 367.758 767.039 368.469 763.898 368.469C761.773 368.469 759.883 368.094 758.227 367.344C756.586 366.578 755.297 365.539 754.359 364.227C753.422 362.898 752.953 361.469 752.953 359.938H759.375C759.438 361.141 759.883 362.062 760.711 362.703C761.539 363.344 762.648 363.664 764.039 363.664C765.336 363.664 766.312 363.422 766.969 362.938C767.641 362.438 767.977 361.789 767.977 360.992ZM792.68 360.992C792.68 360.164 792.266 359.516 791.438 359.047C790.625 358.562 789.312 358.133 787.5 357.758C781.469 356.492 778.453 353.93 778.453 350.07C778.453 347.82 779.383 345.945 781.242 344.445C783.117 342.93 785.562 342.172 788.578 342.172C791.797 342.172 794.367 342.93 796.289 344.445C798.227 345.961 799.195 347.93 799.195 350.352H792.422C792.422 349.383 792.109 348.586 791.484 347.961C790.859 347.32 789.883 347 788.555 347C787.414 347 786.531 347.258 785.906 347.773C785.281 348.289 784.969 348.945 784.969 349.742C784.969 350.492 785.32 351.102 786.023 351.57C786.742 352.023 787.945 352.422 789.633 352.766C791.32 353.094 792.742 353.469 793.898 353.891C797.477 355.203 799.266 357.477 799.266 360.711C799.266 363.023 798.273 364.898 796.289 366.336C794.305 367.758 791.742 368.469 788.602 368.469C786.477 368.469 784.586 368.094 782.93 367.344C781.289 366.578 780 365.539 779.062 364.227C778.125 362.898 777.656 361.469 777.656 359.938H784.078C784.141 361.141 784.586 362.062 785.414 362.703C786.242 363.344 787.352 363.664 788.742 363.664C790.039 363.664 791.016 363.422 791.672 362.938C792.344 362.438 792.68 361.789 792.68 360.992ZM818.344 368C818.031 367.391 817.805 366.633 817.664 365.727C816.023 367.555 813.891 368.469 811.266 368.469C808.781 368.469 806.719 367.75 805.078 366.312C803.453 364.875 802.641 363.062 802.641 360.875C802.641 358.188 803.633 356.125 805.617 354.688C807.617 353.25 810.5 352.523 814.266 352.508H817.383V351.055C817.383 349.883 817.078 348.945 816.469 348.242C815.875 347.539 814.93 347.188 813.633 347.188C812.492 347.188 811.594 347.461 810.938 348.008C810.297 348.555 809.977 349.305 809.977 350.258H803.203C803.203 348.789 803.656 347.43 804.562 346.18C805.469 344.93 806.75 343.953 808.406 343.25C810.062 342.531 811.922 342.172 813.984 342.172C817.109 342.172 819.586 342.961 821.414 344.539C823.258 346.102 824.18 348.305 824.18 351.148V362.141C824.195 364.547 824.531 366.367 825.188 367.602V368H818.344ZM812.742 363.289C813.742 363.289 814.664 363.07 815.508 362.633C816.352 362.18 816.977 361.578 817.383 360.828V356.469H814.852C811.461 356.469 809.656 357.641 809.438 359.984L809.414 360.383C809.414 361.227 809.711 361.922 810.305 362.469C810.898 363.016 811.711 363.289 812.742 363.289ZM250.148 419.008C251.398 419.008 252.414 418.664 253.195 417.977C253.977 417.289 254.383 416.375 254.414 415.234H260.766C260.75 416.953 260.281 418.531 259.359 419.969C258.438 421.391 257.172 422.5 255.562 423.297C253.969 424.078 252.203 424.469 250.266 424.469C246.641 424.469 243.781 423.32 241.688 421.023C239.594 418.711 238.547 415.523 238.547 411.461V411.016C238.547 407.109 239.586 403.992 241.664 401.664C243.742 399.336 246.594 398.172 250.219 398.172C253.391 398.172 255.93 399.078 257.836 400.891C259.758 402.688 260.734 405.086 260.766 408.086H254.414C254.383 406.773 253.977 405.711 253.195 404.898C252.414 404.07 251.383 403.656 250.102 403.656C248.523 403.656 247.328 404.234 246.516 405.391C245.719 406.531 245.32 408.391 245.32 410.969V411.672C245.32 414.281 245.719 416.156 246.516 417.297C247.312 418.438 248.523 419.008 250.148 419.008ZM263.578 411.086C263.578 408.57 264.062 406.328 265.031 404.359C266 402.391 267.391 400.867 269.203 399.789C271.031 398.711 273.148 398.172 275.555 398.172C278.977 398.172 281.766 399.219 283.922 401.312C286.094 403.406 287.305 406.25 287.555 409.844L287.602 411.578C287.602 415.469 286.516 418.594 284.344 420.953C282.172 423.297 279.258 424.469 275.602 424.469C271.945 424.469 269.023 423.297 266.836 420.953C264.664 418.609 263.578 415.422 263.578 411.391V411.086ZM270.352 411.578C270.352 413.984 270.805 415.828 271.711 417.109C272.617 418.375 273.914 419.008 275.602 419.008C277.242 419.008 278.523 418.383 279.445 417.133C280.367 415.867 280.828 413.852 280.828 411.086C280.828 408.727 280.367 406.898 279.445 405.602C278.523 404.305 277.227 403.656 275.555 403.656C273.898 403.656 272.617 404.305 271.711 405.602C270.805 406.883 270.352 408.875 270.352 411.578ZM298.125 398.641L298.336 401.477C300.133 399.273 302.562 398.172 305.625 398.172C308.891 398.172 311.133 399.461 312.352 402.039C314.133 399.461 316.672 398.172 319.969 398.172C322.719 398.172 324.766 398.977 326.109 400.586C327.453 402.18 328.125 404.586 328.125 407.805V424H321.328V407.828C321.328 406.391 321.047 405.344 320.484 404.688C319.922 404.016 318.93 403.68 317.508 403.68C315.477 403.68 314.07 404.648 313.289 406.586L313.312 424H306.539V407.852C306.539 406.383 306.25 405.32 305.672 404.664C305.094 404.008 304.109 403.68 302.719 403.68C300.797 403.68 299.406 404.477 298.547 406.07V424H291.773V398.641H298.125ZM348.539 421.422C346.867 423.453 344.555 424.469 341.602 424.469C338.883 424.469 336.805 423.688 335.367 422.125C333.945 420.562 333.219 418.273 333.188 415.258V398.641H339.961V415.023C339.961 417.664 341.164 418.984 343.57 418.984C345.867 418.984 347.445 418.188 348.305 416.594V398.641H355.102V424H348.727L348.539 421.422ZM366.445 398.641L366.656 401.57C368.469 399.305 370.898 398.172 373.945 398.172C376.633 398.172 378.633 398.961 379.945 400.539C381.258 402.117 381.93 404.477 381.961 407.617V424H375.188V407.781C375.188 406.344 374.875 405.305 374.25 404.664C373.625 404.008 372.586 403.68 371.133 403.68C369.227 403.68 367.797 404.492 366.844 406.117V424H360.07V398.641H366.445ZM394.266 424H387.469V398.641H394.266V424ZM387.07 392.078C387.07 391.062 387.406 390.227 388.078 389.57C388.766 388.914 389.695 388.586 390.867 388.586C392.023 388.586 392.945 388.914 393.633 389.57C394.32 390.227 394.664 391.062 394.664 392.078C394.664 393.109 394.312 393.953 393.609 394.609C392.922 395.266 392.008 395.594 390.867 395.594C389.727 395.594 388.805 395.266 388.102 394.609C387.414 393.953 387.07 393.109 387.07 392.078ZM398.812 411.133C398.812 407.18 399.695 404.031 401.461 401.688C403.242 399.344 405.672 398.172 408.75 398.172C411.219 398.172 413.258 399.094 414.867 400.938V388H421.664V424H415.547L415.219 421.305C413.531 423.414 411.359 424.469 408.703 424.469C405.719 424.469 403.32 423.297 401.508 420.953C399.711 418.594 398.812 415.32 398.812 411.133ZM405.586 411.625C405.586 414 406 415.82 406.828 417.086C407.656 418.352 408.859 418.984 410.438 418.984C412.531 418.984 414.008 418.102 414.867 416.336V406.328C414.023 404.562 412.562 403.68 410.484 403.68C407.219 403.68 405.586 406.328 405.586 411.625ZM441.609 424C441.297 423.391 441.07 422.633 440.93 421.727C439.289 423.555 437.156 424.469 434.531 424.469C432.047 424.469 429.984 423.75 428.344 422.312C426.719 420.875 425.906 419.062 425.906 416.875C425.906 414.188 426.898 412.125 428.883 410.688C430.883 409.25 433.766 408.523 437.531 408.508H440.648V407.055C440.648 405.883 440.344 404.945 439.734 404.242C439.141 403.539 438.195 403.188 436.898 403.188C435.758 403.188 434.859 403.461 434.203 404.008C433.562 404.555 433.242 405.305 433.242 406.258H426.469C426.469 404.789 426.922 403.43 427.828 402.18C428.734 400.93 430.016 399.953 431.672 399.25C433.328 398.531 435.188 398.172 437.25 398.172C440.375 398.172 442.852 398.961 444.68 400.539C446.523 402.102 447.445 404.305 447.445 407.148V418.141C447.461 420.547 447.797 422.367 448.453 423.602V424H441.609ZM436.008 419.289C437.008 419.289 437.93 419.07 438.773 418.633C439.617 418.18 440.242 417.578 440.648 416.828V412.469H438.117C434.727 412.469 432.922 413.641 432.703 415.984L432.68 416.383C432.68 417.227 432.977 417.922 433.57 418.469C434.164 419.016 434.977 419.289 436.008 419.289ZM451.594 411.133C451.594 407.18 452.477 404.031 454.242 401.688C456.023 399.344 458.453 398.172 461.531 398.172C464 398.172 466.039 399.094 467.648 400.938V388H474.445V424H468.328L468 421.305C466.312 423.414 464.141 424.469 461.484 424.469C458.5 424.469 456.102 423.297 454.289 420.953C452.492 418.594 451.594 415.32 451.594 411.133ZM458.367 411.625C458.367 414 458.781 415.82 459.609 417.086C460.438 418.352 461.641 418.984 463.219 418.984C465.312 418.984 466.789 418.102 467.648 416.336V406.328C466.805 404.562 465.344 403.68 463.266 403.68C460 403.68 458.367 406.328 458.367 411.625ZM491.367 424.469C487.648 424.469 484.617 423.328 482.273 421.047C479.945 418.766 478.781 415.727 478.781 411.93V411.273C478.781 408.727 479.273 406.453 480.258 404.453C481.242 402.438 482.633 400.891 484.43 399.812C486.242 398.719 488.305 398.172 490.617 398.172C494.086 398.172 496.812 399.266 498.797 401.453C500.797 403.641 501.797 406.742 501.797 410.758V413.523H485.648C485.867 415.18 486.523 416.508 487.617 417.508C488.727 418.508 490.125 419.008 491.812 419.008C494.422 419.008 496.461 418.062 497.93 416.172L501.258 419.898C500.242 421.336 498.867 422.461 497.133 423.273C495.398 424.07 493.477 424.469 491.367 424.469ZM490.594 403.656C489.25 403.656 488.156 404.109 487.312 405.016C486.484 405.922 485.953 407.219 485.719 408.906H495.141V408.367C495.109 406.867 494.703 405.711 493.922 404.898C493.141 404.07 492.031 403.656 490.594 403.656Z" fill="white"/>
<path fill-rule="evenodd" clip-rule="evenodd" d="M308.41 686.696C247.254 671.526 152.522 725.784 107.932 680.885C62.0878 634.723 57.4485 558.94 64.3309 492.994C70.9167 429.892 106.766 376.074 145.019 325.524C183.417 274.781 222.107 211.23 284.05 202.637C345.226 194.151 392.399 251.253 444.474 283.983C484.355 309.049 522.669 333.485 551.754 370.892C583.001 411.079 616.713 454.05 616.883 505.722C617.057 558.269 622.752 582.492 593.016 625.902C561.565 671.814 534.131 728.336 481.283 742.889C428.69 757.371 360.942 699.726 308.41 686.696Z" stroke="#1CDC6E" stroke-width="2"/>
</svg>
