<svg width="703" height="653" viewBox="0 0 703 653" fill="none" xmlns="http://www.w3.org/2000/svg">
<path d="M34.6562 233.539L42.3906 207.875H50.2188L38.3359 242H31L19.1641 207.875H26.9688L34.6562 233.539ZM63.6484 242.469C59.9297 242.469 56.8984 241.328 54.5547 239.047C52.2266 236.766 51.0625 233.727 51.0625 229.93V229.273C51.0625 226.727 51.5547 224.453 52.5391 222.453C53.5234 220.438 54.9141 218.891 56.7109 217.812C58.5234 216.719 60.5859 216.172 62.8984 216.172C66.3672 216.172 69.0938 217.266 71.0781 219.453C73.0781 221.641 74.0781 224.742 74.0781 228.758V231.523H57.9297C58.1484 233.18 58.8047 234.508 59.8984 235.508C61.0078 236.508 62.4062 237.008 64.0938 237.008C66.7031 237.008 68.7422 236.062 70.2109 234.172L73.5391 237.898C72.5234 239.336 71.1484 240.461 69.4141 241.273C67.6797 242.07 65.7578 242.469 63.6484 242.469ZM62.875 221.656C61.5312 221.656 60.4375 222.109 59.5938 223.016C58.7656 223.922 58.2344 225.219 58 226.906H67.4219V226.367C67.3906 224.867 66.9844 223.711 66.2031 222.898C65.4219 222.07 64.3125 221.656 62.875 221.656ZM84.1797 216.641L84.3906 219.57C86.2031 217.305 88.6328 216.172 91.6797 216.172C94.3672 216.172 96.3672 216.961 97.6797 218.539C98.9922 220.117 99.6641 222.477 99.6953 225.617V242H92.9219V225.781C92.9219 224.344 92.6094 223.305 91.9844 222.664C91.3594 222.008 90.3203 221.68 88.8672 221.68C86.9609 221.68 85.5312 222.492 84.5781 224.117V242H77.8047V216.641H84.1797ZM111.461 219.406C113.258 217.25 115.516 216.172 118.234 216.172C123.734 216.172 126.523 219.367 126.602 225.758V242H119.828V225.945C119.828 224.492 119.516 223.422 118.891 222.734C118.266 222.031 117.227 221.68 115.773 221.68C113.789 221.68 112.352 222.445 111.461 223.977V242H104.688V206H111.461V219.406ZM146.406 242C146.094 241.391 145.867 240.633 145.727 239.727C144.086 241.555 141.953 242.469 139.328 242.469C136.844 242.469 134.781 241.75 133.141 240.312C131.516 238.875 130.703 237.062 130.703 234.875C130.703 232.188 131.695 230.125 133.68 228.688C135.68 227.25 138.562 226.523 142.328 226.508H145.445V225.055C145.445 223.883 145.141 222.945 144.531 222.242C143.938 221.539 142.992 221.188 141.695 221.188C140.555 221.188 139.656 221.461 139 222.008C138.359 222.555 138.039 223.305 138.039 224.258H131.266C131.266 222.789 131.719 221.43 132.625 220.18C133.531 218.93 134.812 217.953 136.469 217.25C138.125 216.531 139.984 216.172 142.047 216.172C145.172 216.172 147.648 216.961 149.477 218.539C151.32 220.102 152.242 222.305 152.242 225.148V236.141C152.258 238.547 152.594 240.367 153.25 241.602V242H146.406ZM140.805 237.289C141.805 237.289 142.727 237.07 143.57 236.633C144.414 236.18 145.039 235.578 145.445 234.828V230.469H142.914C139.523 230.469 137.719 231.641 137.5 233.984L137.477 234.383C137.477 235.227 137.773 235.922 138.367 236.469C138.961 237.016 139.773 237.289 140.805 237.289ZM171.25 242V221.609H167.477V216.641H171.25V214.484C171.25 211.641 172.062 209.438 173.688 207.875C175.328 206.297 177.617 205.508 180.555 205.508C181.492 205.508 182.641 205.664 184 205.977L183.93 211.227C183.367 211.086 182.68 211.016 181.867 211.016C179.32 211.016 178.047 212.211 178.047 214.602V216.641H183.086V221.609H178.047V242H171.25ZM201.297 242C200.984 241.391 200.758 240.633 200.617 239.727C198.977 241.555 196.844 242.469 194.219 242.469C191.734 242.469 189.672 241.75 188.031 240.312C186.406 238.875 185.594 237.062 185.594 234.875C185.594 232.188 186.586 230.125 188.57 228.688C190.57 227.25 193.453 226.523 197.219 226.508H200.336V225.055C200.336 223.883 200.031 222.945 199.422 222.242C198.828 221.539 197.883 221.188 196.586 221.188C195.445 221.188 194.547 221.461 193.891 222.008C193.25 222.555 192.93 223.305 192.93 224.258H186.156C186.156 222.789 186.609 221.43 187.516 220.18C188.422 218.93 189.703 217.953 191.359 217.25C193.016 216.531 194.875 216.172 196.938 216.172C200.062 216.172 202.539 216.961 204.367 218.539C206.211 220.102 207.133 222.305 207.133 225.148V236.141C207.148 238.547 207.484 240.367 208.141 241.602V242H201.297ZM195.695 237.289C196.695 237.289 197.617 237.07 198.461 236.633C199.305 236.18 199.93 235.578 200.336 234.828V230.469H197.805C194.414 230.469 192.609 231.641 192.391 233.984L192.367 234.383C192.367 235.227 192.664 235.922 193.258 236.469C193.852 237.016 194.664 237.289 195.695 237.289ZM220.117 236.539H232.516V242H211.469V237.875L223.398 222.125H211.82V216.641H232.141V220.648L220.117 236.539ZM248.055 242.469C244.336 242.469 241.305 241.328 238.961 239.047C236.633 236.766 235.469 233.727 235.469 229.93V229.273C235.469 226.727 235.961 224.453 236.945 222.453C237.93 220.438 239.32 218.891 241.117 217.812C242.93 216.719 244.992 216.172 247.305 216.172C250.773 216.172 253.5 217.266 255.484 219.453C257.484 221.641 258.484 224.742 258.484 228.758V231.523H242.336C242.555 233.18 243.211 234.508 244.305 235.508C245.414 236.508 246.812 237.008 248.5 237.008C251.109 237.008 253.148 236.062 254.617 234.172L257.945 237.898C256.93 239.336 255.555 240.461 253.82 241.273C252.086 242.07 250.164 242.469 248.055 242.469ZM247.281 221.656C245.938 221.656 244.844 222.109 244 223.016C243.172 223.922 242.641 225.219 242.406 226.906H251.828V226.367C251.797 224.867 251.391 223.711 250.609 222.898C249.828 222.07 248.719 221.656 247.281 221.656ZM276.602 222.992C275.68 222.867 274.867 222.805 274.164 222.805C271.602 222.805 269.922 223.672 269.125 225.406V242H262.352V216.641H268.75L268.938 219.664C270.297 217.336 272.18 216.172 274.586 216.172C275.336 216.172 276.039 216.273 276.695 216.477L276.602 222.992ZM314.664 229.555C314.664 233.461 313.773 236.594 311.992 238.953C310.227 241.297 307.836 242.469 304.82 242.469C302.258 242.469 300.188 241.578 298.609 239.797V251.75H291.836V216.641H298.117L298.352 219.125C299.992 217.156 302.133 216.172 304.773 216.172C307.898 216.172 310.328 217.328 312.062 219.641C313.797 221.953 314.664 225.141 314.664 229.203V229.555ZM307.891 229.062C307.891 226.703 307.469 224.883 306.625 223.602C305.797 222.32 304.586 221.68 302.992 221.68C300.867 221.68 299.406 222.492 298.609 224.117V234.5C299.438 236.172 300.914 237.008 303.039 237.008C306.273 237.008 307.891 234.359 307.891 229.062ZM333.578 242C333.266 241.391 333.039 240.633 332.898 239.727C331.258 241.555 329.125 242.469 326.5 242.469C324.016 242.469 321.953 241.75 320.312 240.312C318.688 238.875 317.875 237.062 317.875 234.875C317.875 232.188 318.867 230.125 320.852 228.688C322.852 227.25 325.734 226.523 329.5 226.508H332.617V225.055C332.617 223.883 332.312 222.945 331.703 222.242C331.109 221.539 330.164 221.188 328.867 221.188C327.727 221.188 326.828 221.461 326.172 222.008C325.531 222.555 325.211 223.305 325.211 224.258H318.438C318.438 222.789 318.891 221.43 319.797 220.18C320.703 218.93 321.984 217.953 323.641 217.25C325.297 216.531 327.156 216.172 329.219 216.172C332.344 216.172 334.82 216.961 336.648 218.539C338.492 220.102 339.414 222.305 339.414 225.148V236.141C339.43 238.547 339.766 240.367 340.422 241.602V242H333.578ZM327.977 237.289C328.977 237.289 329.898 237.07 330.742 236.633C331.586 236.18 332.211 235.578 332.617 234.828V230.469H330.086C326.695 230.469 324.891 231.641 324.672 233.984L324.648 234.383C324.648 235.227 324.945 235.922 325.539 236.469C326.133 237.016 326.945 237.289 327.977 237.289ZM358.867 222.992C357.945 222.867 357.133 222.805 356.43 222.805C353.867 222.805 352.188 223.672 351.391 225.406V242H344.617V216.641H351.016L351.203 219.664C352.562 217.336 354.445 216.172 356.852 216.172C357.602 216.172 358.305 216.273 358.961 216.477L358.867 222.992ZM371.43 210.406V216.641H375.766V221.609H371.43V234.266C371.43 235.203 371.609 235.875 371.969 236.281C372.328 236.688 373.016 236.891 374.031 236.891C374.781 236.891 375.445 236.836 376.023 236.727V241.859C374.695 242.266 373.328 242.469 371.922 242.469C367.172 242.469 364.75 240.07 364.656 235.273V221.609H360.953V216.641H364.656V210.406H371.43ZM391.211 242.469C387.492 242.469 384.461 241.328 382.117 239.047C379.789 236.766 378.625 233.727 378.625 229.93V229.273C378.625 226.727 379.117 224.453 380.102 222.453C381.086 220.438 382.477 218.891 384.273 217.812C386.086 216.719 388.148 216.172 390.461 216.172C393.93 216.172 396.656 217.266 398.641 219.453C400.641 221.641 401.641 224.742 401.641 228.758V231.523H385.492C385.711 233.18 386.367 234.508 387.461 235.508C388.57 236.508 389.969 237.008 391.656 237.008C394.266 237.008 396.305 236.062 397.773 234.172L401.102 237.898C400.086 239.336 398.711 240.461 396.977 241.273C395.242 242.07 393.32 242.469 391.211 242.469ZM390.438 221.656C389.094 221.656 388 222.109 387.156 223.016C386.328 223.922 385.797 225.219 385.562 226.906H394.984V226.367C394.953 224.867 394.547 223.711 393.766 222.898C392.984 222.07 391.875 221.656 390.438 221.656ZM416.406 229.133C416.406 225.18 417.289 222.031 419.055 219.688C420.836 217.344 423.266 216.172 426.344 216.172C428.812 216.172 430.852 217.094 432.461 218.938V206H439.258V242H433.141L432.812 239.305C431.125 241.414 428.953 242.469 426.297 242.469C423.312 242.469 420.914 241.297 419.102 238.953C417.305 236.594 416.406 233.32 416.406 229.133ZM423.18 229.625C423.18 232 423.594 233.82 424.422 235.086C425.25 236.352 426.453 236.984 428.031 236.984C430.125 236.984 431.602 236.102 432.461 234.336V224.328C431.617 222.562 430.156 221.68 428.078 221.68C424.812 221.68 423.18 224.328 423.18 229.625ZM459.203 242C458.891 241.391 458.664 240.633 458.523 239.727C456.883 241.555 454.75 242.469 452.125 242.469C449.641 242.469 447.578 241.75 445.938 240.312C444.312 238.875 443.5 237.062 443.5 234.875C443.5 232.188 444.492 230.125 446.477 228.688C448.477 227.25 451.359 226.523 455.125 226.508H458.242V225.055C458.242 223.883 457.938 222.945 457.328 222.242C456.734 221.539 455.789 221.188 454.492 221.188C453.352 221.188 452.453 221.461 451.797 222.008C451.156 222.555 450.836 223.305 450.836 224.258H444.062C444.062 222.789 444.516 221.43 445.422 220.18C446.328 218.93 447.609 217.953 449.266 217.25C450.922 216.531 452.781 216.172 454.844 216.172C457.969 216.172 460.445 216.961 462.273 218.539C464.117 220.102 465.039 222.305 465.039 225.148V236.141C465.055 238.547 465.391 240.367 466.047 241.602V242H459.203ZM453.602 237.289C454.602 237.289 455.523 237.07 456.367 236.633C457.211 236.18 457.836 235.578 458.242 234.828V230.469H455.711C452.32 230.469 450.516 231.641 450.297 233.984L450.273 234.383C450.273 235.227 450.57 235.922 451.164 236.469C451.758 237.016 452.57 237.289 453.602 237.289ZM488.43 216.641L488.641 219.57C490.453 217.305 492.883 216.172 495.93 216.172C498.617 216.172 500.617 216.961 501.93 218.539C503.242 220.117 503.914 222.477 503.945 225.617V242H497.172V225.781C497.172 224.344 496.859 223.305 496.234 222.664C495.609 222.008 494.57 221.68 493.117 221.68C491.211 221.68 489.781 222.492 488.828 224.117V242H482.055V216.641H488.43ZM508.047 229.086C508.047 226.57 508.531 224.328 509.5 222.359C510.469 220.391 511.859 218.867 513.672 217.789C515.5 216.711 517.617 216.172 520.023 216.172C523.445 216.172 526.234 217.219 528.391 219.312C530.562 221.406 531.773 224.25 532.023 227.844L532.07 229.578C532.07 233.469 530.984 236.594 528.812 238.953C526.641 241.297 523.727 242.469 520.07 242.469C516.414 242.469 513.492 241.297 511.305 238.953C509.133 236.609 508.047 233.422 508.047 229.391V229.086ZM514.82 229.578C514.82 231.984 515.273 233.828 516.18 235.109C517.086 236.375 518.383 237.008 520.07 237.008C521.711 237.008 522.992 236.383 523.914 235.133C524.836 233.867 525.297 231.852 525.297 229.086C525.297 226.727 524.836 224.898 523.914 223.602C522.992 222.305 521.695 221.656 520.023 221.656C518.367 221.656 517.086 222.305 516.18 223.602C515.273 224.883 514.82 226.875 514.82 229.578ZM549.977 234.992C549.977 234.164 549.562 233.516 548.734 233.047C547.922 232.562 546.609 232.133 544.797 231.758C538.766 230.492 535.75 227.93 535.75 224.07C535.75 221.82 536.68 219.945 538.539 218.445C540.414 216.93 542.859 216.172 545.875 216.172C549.094 216.172 551.664 216.93 553.586 218.445C555.523 219.961 556.492 221.93 556.492 224.352H549.719C549.719 223.383 549.406 222.586 548.781 221.961C548.156 221.32 547.18 221 545.852 221C544.711 221 543.828 221.258 543.203 221.773C542.578 222.289 542.266 222.945 542.266 223.742C542.266 224.492 542.617 225.102 543.32 225.57C544.039 226.023 545.242 226.422 546.93 226.766C548.617 227.094 550.039 227.469 551.195 227.891C554.773 229.203 556.562 231.477 556.562 234.711C556.562 237.023 555.57 238.898 553.586 240.336C551.602 241.758 549.039 242.469 545.898 242.469C543.773 242.469 541.883 242.094 540.227 241.344C538.586 240.578 537.297 239.539 536.359 238.227C535.422 236.898 534.953 235.469 534.953 233.938H541.375C541.438 235.141 541.883 236.062 542.711 236.703C543.539 237.344 544.648 237.664 546.039 237.664C547.336 237.664 548.312 237.422 548.969 236.938C549.641 236.438 549.977 235.789 549.977 234.992ZM574.68 234.992C574.68 234.164 574.266 233.516 573.438 233.047C572.625 232.562 571.312 232.133 569.5 231.758C563.469 230.492 560.453 227.93 560.453 224.07C560.453 221.82 561.383 219.945 563.242 218.445C565.117 216.93 567.562 216.172 570.578 216.172C573.797 216.172 576.367 216.93 578.289 218.445C580.227 219.961 581.195 221.93 581.195 224.352H574.422C574.422 223.383 574.109 222.586 573.484 221.961C572.859 221.32 571.883 221 570.555 221C569.414 221 568.531 221.258 567.906 221.773C567.281 222.289 566.969 222.945 566.969 223.742C566.969 224.492 567.32 225.102 568.023 225.57C568.742 226.023 569.945 226.422 571.633 226.766C573.32 227.094 574.742 227.469 575.898 227.891C579.477 229.203 581.266 231.477 581.266 234.711C581.266 237.023 580.273 238.898 578.289 240.336C576.305 241.758 573.742 242.469 570.602 242.469C568.477 242.469 566.586 242.094 564.93 241.344C563.289 240.578 562 239.539 561.062 238.227C560.125 236.898 559.656 235.469 559.656 233.938H566.078C566.141 235.141 566.586 236.062 567.414 236.703C568.242 237.344 569.352 237.664 570.742 237.664C572.039 237.664 573.016 237.422 573.672 236.938C574.344 236.438 574.68 235.789 574.68 234.992ZM600.344 242C600.031 241.391 599.805 240.633 599.664 239.727C598.023 241.555 595.891 242.469 593.266 242.469C590.781 242.469 588.719 241.75 587.078 240.312C585.453 238.875 584.641 237.062 584.641 234.875C584.641 232.188 585.633 230.125 587.617 228.688C589.617 227.25 592.5 226.523 596.266 226.508H599.383V225.055C599.383 223.883 599.078 222.945 598.469 222.242C597.875 221.539 596.93 221.188 595.633 221.188C594.492 221.188 593.594 221.461 592.938 222.008C592.297 222.555 591.977 223.305 591.977 224.258H585.203C585.203 222.789 585.656 221.43 586.562 220.18C587.469 218.93 588.75 217.953 590.406 217.25C592.062 216.531 593.922 216.172 595.984 216.172C599.109 216.172 601.586 216.961 603.414 218.539C605.258 220.102 606.18 222.305 606.18 225.148V236.141C606.195 238.547 606.531 240.367 607.188 241.602V242H600.344ZM594.742 237.289C595.742 237.289 596.664 237.07 597.508 236.633C598.352 236.18 598.977 235.578 599.383 234.828V230.469H596.852C593.461 230.469 591.656 231.641 591.438 233.984L591.414 234.383C591.414 235.227 591.711 235.922 592.305 236.469C592.898 237.016 593.711 237.289 594.742 237.289ZM32.1484 293.008C33.3984 293.008 34.4141 292.664 35.1953 291.977C35.9766 291.289 36.3828 290.375 36.4141 289.234H42.7656C42.75 290.953 42.2812 292.531 41.3594 293.969C40.4375 295.391 39.1719 296.5 37.5625 297.297C35.9688 298.078 34.2031 298.469 32.2656 298.469C28.6406 298.469 25.7812 297.32 23.6875 295.023C21.5938 292.711 20.5469 289.523 20.5469 285.461V285.016C20.5469 281.109 21.5859 277.992 23.6641 275.664C25.7422 273.336 28.5938 272.172 32.2188 272.172C35.3906 272.172 37.9297 273.078 39.8359 274.891C41.7578 276.688 42.7344 279.086 42.7656 282.086H36.4141C36.3828 280.773 35.9766 279.711 35.1953 278.898C34.4141 278.07 33.3828 277.656 32.1016 277.656C30.5234 277.656 29.3281 278.234 28.5156 279.391C27.7188 280.531 27.3203 282.391 27.3203 284.969V285.672C27.3203 288.281 27.7188 290.156 28.5156 291.297C29.3125 292.438 30.5234 293.008 32.1484 293.008ZM45.5781 285.086C45.5781 282.57 46.0625 280.328 47.0312 278.359C48 276.391 49.3906 274.867 51.2031 273.789C53.0312 272.711 55.1484 272.172 57.5547 272.172C60.9766 272.172 63.7656 273.219 65.9219 275.312C68.0938 277.406 69.3047 280.25 69.5547 283.844L69.6016 285.578C69.6016 289.469 68.5156 292.594 66.3438 294.953C64.1719 297.297 61.2578 298.469 57.6016 298.469C53.9453 298.469 51.0234 297.297 48.8359 294.953C46.6641 292.609 45.5781 289.422 45.5781 285.391V285.086ZM52.3516 285.578C52.3516 287.984 52.8047 289.828 53.7109 291.109C54.6172 292.375 55.9141 293.008 57.6016 293.008C59.2422 293.008 60.5234 292.383 61.4453 291.133C62.3672 289.867 62.8281 287.852 62.8281 285.086C62.8281 282.727 62.3672 280.898 61.4453 279.602C60.5234 278.305 59.2266 277.656 57.5547 277.656C55.8984 277.656 54.6172 278.305 53.7109 279.602C52.8047 280.883 52.3516 282.875 52.3516 285.578ZM80.125 272.641L80.3359 275.477C82.1328 273.273 84.5625 272.172 87.625 272.172C90.8906 272.172 93.1328 273.461 94.3516 276.039C96.1328 273.461 98.6719 272.172 101.969 272.172C104.719 272.172 106.766 272.977 108.109 274.586C109.453 276.18 110.125 278.586 110.125 281.805V298H103.328V281.828C103.328 280.391 103.047 279.344 102.484 278.688C101.922 278.016 100.93 277.68 99.5078 277.68C97.4766 277.68 96.0703 278.648 95.2891 280.586L95.3125 298H88.5391V281.852C88.5391 280.383 88.25 279.32 87.6719 278.664C87.0938 278.008 86.1094 277.68 84.7188 277.68C82.7969 277.68 81.4062 278.477 80.5469 280.07V298H73.7734V272.641H80.125ZM130.539 295.422C128.867 297.453 126.555 298.469 123.602 298.469C120.883 298.469 118.805 297.688 117.367 296.125C115.945 294.562 115.219 292.273 115.188 289.258V272.641H121.961V289.023C121.961 291.664 123.164 292.984 125.57 292.984C127.867 292.984 129.445 292.188 130.305 290.594V272.641H137.102V298H130.727L130.539 295.422ZM148.445 272.641L148.656 275.57C150.469 273.305 152.898 272.172 155.945 272.172C158.633 272.172 160.633 272.961 161.945 274.539C163.258 276.117 163.93 278.477 163.961 281.617V298H157.188V281.781C157.188 280.344 156.875 279.305 156.25 278.664C155.625 278.008 154.586 277.68 153.133 277.68C151.227 277.68 149.797 278.492 148.844 280.117V298H142.07V272.641H148.445ZM176.266 298H169.469V272.641H176.266V298ZM169.07 266.078C169.07 265.062 169.406 264.227 170.078 263.57C170.766 262.914 171.695 262.586 172.867 262.586C174.023 262.586 174.945 262.914 175.633 263.57C176.32 264.227 176.664 265.062 176.664 266.078C176.664 267.109 176.312 267.953 175.609 268.609C174.922 269.266 174.008 269.594 172.867 269.594C171.727 269.594 170.805 269.266 170.102 268.609C169.414 267.953 169.07 267.109 169.07 266.078ZM180.812 285.133C180.812 281.18 181.695 278.031 183.461 275.688C185.242 273.344 187.672 272.172 190.75 272.172C193.219 272.172 195.258 273.094 196.867 274.938V262H203.664V298H197.547L197.219 295.305C195.531 297.414 193.359 298.469 190.703 298.469C187.719 298.469 185.32 297.297 183.508 294.953C181.711 292.594 180.812 289.32 180.812 285.133ZM187.586 285.625C187.586 288 188 289.82 188.828 291.086C189.656 292.352 190.859 292.984 192.438 292.984C194.531 292.984 196.008 292.102 196.867 290.336V280.328C196.023 278.562 194.562 277.68 192.484 277.68C189.219 277.68 187.586 280.328 187.586 285.625ZM223.609 298C223.297 297.391 223.07 296.633 222.93 295.727C221.289 297.555 219.156 298.469 216.531 298.469C214.047 298.469 211.984 297.75 210.344 296.312C208.719 294.875 207.906 293.062 207.906 290.875C207.906 288.188 208.898 286.125 210.883 284.688C212.883 283.25 215.766 282.523 219.531 282.508H222.648V281.055C222.648 279.883 222.344 278.945 221.734 278.242C221.141 277.539 220.195 277.188 218.898 277.188C217.758 277.188 216.859 277.461 216.203 278.008C215.562 278.555 215.242 279.305 215.242 280.258H208.469C208.469 278.789 208.922 277.43 209.828 276.18C210.734 274.93 212.016 273.953 213.672 273.25C215.328 272.531 217.188 272.172 219.25 272.172C222.375 272.172 224.852 272.961 226.68 274.539C228.523 276.102 229.445 278.305 229.445 281.148V292.141C229.461 294.547 229.797 296.367 230.453 297.602V298H223.609ZM218.008 293.289C219.008 293.289 219.93 293.07 220.773 292.633C221.617 292.18 222.242 291.578 222.648 290.828V286.469H220.117C216.727 286.469 214.922 287.641 214.703 289.984L214.68 290.383C214.68 291.227 214.977 291.922 215.57 292.469C216.164 293.016 216.977 293.289 218.008 293.289ZM233.594 285.133C233.594 281.18 234.477 278.031 236.242 275.688C238.023 273.344 240.453 272.172 243.531 272.172C246 272.172 248.039 273.094 249.648 274.938V262H256.445V298H250.328L250 295.305C248.312 297.414 246.141 298.469 243.484 298.469C240.5 298.469 238.102 297.297 236.289 294.953C234.492 292.594 233.594 289.32 233.594 285.133ZM240.367 285.625C240.367 288 240.781 289.82 241.609 291.086C242.438 292.352 243.641 292.984 245.219 292.984C247.312 292.984 248.789 292.102 249.648 290.336V280.328C248.805 278.562 247.344 277.68 245.266 277.68C242 277.68 240.367 280.328 240.367 285.625ZM273.367 298.469C269.648 298.469 266.617 297.328 264.273 295.047C261.945 292.766 260.781 289.727 260.781 285.93V285.273C260.781 282.727 261.273 280.453 262.258 278.453C263.242 276.438 264.633 274.891 266.43 273.812C268.242 272.719 270.305 272.172 272.617 272.172C276.086 272.172 278.812 273.266 280.797 275.453C282.797 277.641 283.797 280.742 283.797 284.758V287.523H267.648C267.867 289.18 268.523 290.508 269.617 291.508C270.727 292.508 272.125 293.008 273.812 293.008C276.422 293.008 278.461 292.062 279.93 290.172L283.258 293.898C282.242 295.336 280.867 296.461 279.133 297.273C277.398 298.07 275.477 298.469 273.367 298.469ZM272.594 277.656C271.25 277.656 270.156 278.109 269.312 279.016C268.484 279.922 267.953 281.219 267.719 282.906H277.141V282.367C277.109 280.867 276.703 279.711 275.922 278.898C275.141 278.07 274.031 277.656 272.594 277.656Z" fill="white"/>
<path d="M52.3633 366H44.7461L29.918 341.676V366H22.3008V329.031H29.918L44.7715 353.406V329.031H52.3633V366ZM74.9863 363.207C73.1751 365.408 70.6699 366.508 67.4707 366.508C64.5254 366.508 62.2741 365.661 60.7168 363.969C59.1764 362.276 58.3893 359.796 58.3555 356.529V338.527H65.6934V356.275C65.6934 359.136 66.9967 360.566 69.6035 360.566C72.0918 360.566 73.8014 359.703 74.7324 357.977V338.527H82.0957V366H75.1895L74.9863 363.207ZM94.3848 338.527L94.6133 341.701C96.5768 339.247 99.209 338.02 102.51 338.02C105.421 338.02 107.588 338.874 109.01 340.584C110.432 342.294 111.16 344.85 111.193 348.252V366H103.855V348.43C103.855 346.872 103.517 345.747 102.84 345.053C102.163 344.342 101.037 343.986 99.4629 343.986C97.3978 343.986 95.849 344.867 94.8164 346.627V366H87.4785V338.527H94.3848ZM128.205 360.592C129.559 360.592 130.66 360.219 131.506 359.475C132.352 358.73 132.792 357.74 132.826 356.504H139.707C139.69 358.366 139.182 360.076 138.184 361.633C137.185 363.173 135.814 364.375 134.07 365.238C132.344 366.085 130.431 366.508 128.332 366.508C124.405 366.508 121.307 365.264 119.039 362.775C116.771 360.27 115.637 356.817 115.637 352.416V351.934C115.637 347.702 116.762 344.325 119.014 341.803C121.265 339.281 124.354 338.02 128.281 338.02C131.717 338.02 134.468 339.001 136.533 340.965C138.615 342.911 139.673 345.51 139.707 348.76H132.826C132.792 347.338 132.352 346.187 131.506 345.307C130.66 344.41 129.542 343.961 128.154 343.961C126.445 343.961 125.15 344.587 124.27 345.84C123.406 347.076 122.975 349.09 122.975 351.883V352.645C122.975 355.471 123.406 357.503 124.27 358.738C125.133 359.974 126.445 360.592 128.205 360.592ZM159.816 366C159.478 365.34 159.232 364.519 159.08 363.537C157.303 365.518 154.992 366.508 152.148 366.508C149.457 366.508 147.223 365.729 145.445 364.172C143.685 362.615 142.805 360.651 142.805 358.281C142.805 355.37 143.88 353.135 146.029 351.578C148.196 350.021 151.319 349.234 155.398 349.217H158.775V347.643C158.775 346.373 158.445 345.357 157.785 344.596C157.142 343.834 156.118 343.453 154.713 343.453C153.477 343.453 152.504 343.749 151.793 344.342C151.099 344.934 150.752 345.747 150.752 346.779H143.414C143.414 345.188 143.905 343.715 144.887 342.361C145.868 341.007 147.257 339.949 149.051 339.188C150.845 338.409 152.859 338.02 155.094 338.02C158.479 338.02 161.162 338.874 163.143 340.584C165.14 342.277 166.139 344.663 166.139 347.744V359.652C166.156 362.259 166.52 364.231 167.23 365.568V366H159.816ZM153.748 360.896C154.831 360.896 155.83 360.66 156.744 360.186C157.658 359.695 158.335 359.043 158.775 358.23V353.508H156.033C152.36 353.508 150.405 354.777 150.168 357.316L150.143 357.748C150.143 358.662 150.464 359.415 151.107 360.008C151.751 360.6 152.631 360.896 153.748 360.896ZM186.73 366V343.91H182.643V338.527H186.73V336.191C186.73 333.111 187.611 330.724 189.371 329.031C191.148 327.322 193.628 326.467 196.811 326.467C197.826 326.467 199.07 326.636 200.543 326.975L200.467 332.662C199.857 332.51 199.113 332.434 198.232 332.434C195.473 332.434 194.094 333.729 194.094 336.318V338.527H199.553V343.91H194.094V366H186.73ZM202.219 352.01C202.219 349.285 202.743 346.855 203.793 344.723C204.842 342.59 206.349 340.939 208.312 339.771C210.293 338.604 212.587 338.02 215.193 338.02C218.9 338.02 221.922 339.154 224.258 341.422C226.611 343.69 227.923 346.771 228.193 350.664L228.244 352.543C228.244 356.758 227.068 360.143 224.715 362.699C222.362 365.238 219.205 366.508 215.244 366.508C211.283 366.508 208.118 365.238 205.748 362.699C203.395 360.16 202.219 356.707 202.219 352.34V352.01ZM209.557 352.543C209.557 355.15 210.048 357.147 211.029 358.535C212.011 359.906 213.416 360.592 215.244 360.592C217.021 360.592 218.41 359.915 219.408 358.561C220.407 357.189 220.906 355.006 220.906 352.01C220.906 349.454 220.407 347.473 219.408 346.068C218.41 344.663 217.005 343.961 215.193 343.961C213.399 343.961 212.011 344.663 211.029 346.068C210.048 347.456 209.557 349.615 209.557 352.543ZM240.508 366H233.145V338.527H240.508V366ZM232.713 331.418C232.713 330.318 233.077 329.412 233.805 328.701C234.549 327.99 235.557 327.635 236.826 327.635C238.079 327.635 239.077 327.99 239.822 328.701C240.567 329.412 240.939 330.318 240.939 331.418C240.939 332.535 240.559 333.449 239.797 334.16C239.052 334.871 238.062 335.227 236.826 335.227C235.59 335.227 234.592 334.871 233.83 334.16C233.085 333.449 232.713 332.535 232.713 331.418ZM268.311 331.773V338.527H273.008V343.91H268.311V357.621C268.311 358.637 268.505 359.365 268.895 359.805C269.284 360.245 270.029 360.465 271.129 360.465C271.941 360.465 272.661 360.406 273.287 360.287V365.848C271.848 366.288 270.367 366.508 268.844 366.508C263.698 366.508 261.074 363.91 260.973 358.713V343.91H256.961V338.527H260.973V331.773H268.311ZM293.016 366C292.677 365.34 292.432 364.519 292.279 363.537C290.502 365.518 288.191 366.508 285.348 366.508C282.656 366.508 280.422 365.729 278.645 364.172C276.884 362.615 276.004 360.651 276.004 358.281C276.004 355.37 277.079 353.135 279.229 351.578C281.395 350.021 284.518 349.234 288.598 349.217H291.975V347.643C291.975 346.373 291.645 345.357 290.984 344.596C290.341 343.834 289.317 343.453 287.912 343.453C286.676 343.453 285.703 343.749 284.992 344.342C284.298 344.934 283.951 345.747 283.951 346.779H276.613C276.613 345.188 277.104 343.715 278.086 342.361C279.068 341.007 280.456 339.949 282.25 339.188C284.044 338.409 286.059 338.02 288.293 338.02C291.678 338.02 294.361 338.874 296.342 340.584C298.339 342.277 299.338 344.663 299.338 347.744V359.652C299.355 362.259 299.719 364.231 300.43 365.568V366H293.016ZM286.947 360.896C288.031 360.896 289.029 360.66 289.943 360.186C290.857 359.695 291.535 359.043 291.975 358.23V353.508H289.232C285.559 353.508 283.604 354.777 283.367 357.316L283.342 357.748C283.342 358.662 283.663 359.415 284.307 360.008C284.95 360.6 285.83 360.896 286.947 360.896ZM297.814 327.33C297.814 329.243 297.256 330.851 296.139 332.154C295.021 333.441 293.659 334.084 292.051 334.084C291.408 334.084 290.832 334.016 290.324 333.881C289.833 333.729 289.148 333.415 288.268 332.941C287.387 332.467 286.753 332.18 286.363 332.078C285.974 331.96 285.551 331.9 285.094 331.9C284.501 331.9 283.993 332.112 283.57 332.535C283.164 332.958 282.961 333.559 282.961 334.338L278.695 334.084C278.695 332.205 279.245 330.605 280.346 329.285C281.463 327.965 282.826 327.305 284.434 327.305C284.941 327.305 285.415 327.372 285.855 327.508C286.312 327.626 287.049 327.931 288.064 328.422C289.08 328.913 289.783 329.209 290.172 329.311C290.561 329.412 290.967 329.463 291.391 329.463C291.983 329.463 292.491 329.26 292.914 328.854C293.354 328.43 293.574 327.829 293.574 327.051L297.814 327.33ZM303.832 352.01C303.832 349.285 304.357 346.855 305.406 344.723C306.456 342.59 307.962 340.939 309.926 339.771C311.906 338.604 314.2 338.02 316.807 338.02C320.514 338.02 323.535 339.154 325.871 341.422C328.224 343.69 329.536 346.771 329.807 350.664L329.857 352.543C329.857 356.758 328.681 360.143 326.328 362.699C323.975 365.238 320.818 366.508 316.857 366.508C312.896 366.508 309.731 365.238 307.361 362.699C305.008 360.16 303.832 356.707 303.832 352.34V352.01ZM311.17 352.543C311.17 355.15 311.661 357.147 312.643 358.535C313.624 359.906 315.029 360.592 316.857 360.592C318.635 360.592 320.023 359.915 321.021 358.561C322.02 357.189 322.52 355.006 322.52 352.01C322.52 349.454 322.02 347.473 321.021 346.068C320.023 344.663 318.618 343.961 316.807 343.961C315.012 343.961 313.624 344.663 312.643 346.068C311.661 347.456 311.17 349.615 311.17 352.543ZM349.332 366V343.91H345.244V338.527H349.332V336.191C349.332 333.111 350.212 330.724 351.973 329.031C353.75 327.322 356.23 326.467 359.412 326.467C360.428 326.467 361.672 326.636 363.145 326.975L363.068 332.662C362.459 332.51 361.714 332.434 360.834 332.434C358.075 332.434 356.695 333.729 356.695 336.318V338.527H362.154V343.91H356.695V366H349.332ZM381.883 366C381.544 365.34 381.299 364.519 381.146 363.537C379.369 365.518 377.059 366.508 374.215 366.508C371.523 366.508 369.289 365.729 367.512 364.172C365.751 362.615 364.871 360.651 364.871 358.281C364.871 355.37 365.946 353.135 368.096 351.578C370.262 350.021 373.385 349.234 377.465 349.217H380.842V347.643C380.842 346.373 380.512 345.357 379.852 344.596C379.208 343.834 378.184 343.453 376.779 343.453C375.544 343.453 374.57 343.749 373.859 344.342C373.165 344.934 372.818 345.747 372.818 346.779H365.48C365.48 345.188 365.971 343.715 366.953 342.361C367.935 341.007 369.323 339.949 371.117 339.188C372.911 338.409 374.926 338.02 377.16 338.02C380.546 338.02 383.229 338.874 385.209 340.584C387.206 342.277 388.205 344.663 388.205 347.744V359.652C388.222 362.259 388.586 364.231 389.297 365.568V366H381.883ZM375.814 360.896C376.898 360.896 377.896 360.66 378.811 360.186C379.725 359.695 380.402 359.043 380.842 358.23V353.508H378.1C374.426 353.508 372.471 354.777 372.234 357.316L372.209 357.748C372.209 358.662 372.531 359.415 373.174 360.008C373.817 360.6 374.697 360.896 375.814 360.896ZM378.607 327H386.605L379.572 334.871H373.605L378.607 327ZM405.268 360.592C406.622 360.592 407.722 360.219 408.568 359.475C409.415 358.73 409.855 357.74 409.889 356.504H416.77C416.753 358.366 416.245 360.076 415.246 361.633C414.247 363.173 412.876 364.375 411.133 365.238C409.406 366.085 407.493 366.508 405.395 366.508C401.467 366.508 398.37 365.264 396.102 362.775C393.833 360.27 392.699 356.817 392.699 352.416V351.934C392.699 347.702 393.825 344.325 396.076 341.803C398.327 339.281 401.417 338.02 405.344 338.02C408.78 338.02 411.531 339.001 413.596 340.965C415.678 342.911 416.736 345.51 416.77 348.76H409.889C409.855 347.338 409.415 346.187 408.568 345.307C407.722 344.41 406.605 343.961 405.217 343.961C403.507 343.961 402.212 344.587 401.332 345.84C400.469 347.076 400.037 349.09 400.037 351.883V352.645C400.037 355.471 400.469 357.503 401.332 358.738C402.195 359.974 403.507 360.592 405.268 360.592ZM428.703 366H421.34V338.527H428.703V366ZM420.908 331.418C420.908 330.318 421.272 329.412 422 328.701C422.745 327.99 423.752 327.635 425.021 327.635C426.274 327.635 427.273 327.99 428.018 328.701C428.762 329.412 429.135 330.318 429.135 331.418C429.135 332.535 428.754 333.449 427.992 334.16C427.247 334.871 426.257 335.227 425.021 335.227C423.786 335.227 422.787 334.871 422.025 334.16C421.281 333.449 420.908 332.535 420.908 331.418ZM442.516 366H435.152V327H442.516V366ZM460.391 352.061C460.391 347.778 461.347 344.367 463.26 341.828C465.189 339.289 467.822 338.02 471.156 338.02C473.831 338.02 476.04 339.018 477.783 341.016V327H485.146V366H478.52L478.164 363.08C476.336 365.365 473.983 366.508 471.105 366.508C467.872 366.508 465.274 365.238 463.311 362.699C461.364 360.143 460.391 356.597 460.391 352.061ZM467.729 352.594C467.729 355.167 468.177 357.139 469.074 358.51C469.971 359.881 471.275 360.566 472.984 360.566C475.253 360.566 476.852 359.61 477.783 357.697V346.855C476.869 344.943 475.286 343.986 473.035 343.986C469.497 343.986 467.729 346.855 467.729 352.594ZM498.578 366H491.215V338.527H498.578V366ZM490.783 331.418C490.783 330.318 491.147 329.412 491.875 328.701C492.62 327.99 493.627 327.635 494.896 327.635C496.149 327.635 497.148 327.99 497.893 328.701C498.637 329.412 499.01 330.318 499.01 331.418C499.01 332.535 498.629 333.449 497.867 334.16C497.122 334.871 496.132 335.227 494.896 335.227C493.661 335.227 492.662 334.871 491.9 334.16C491.156 333.449 490.783 332.535 490.783 331.418ZM514.93 357.037L520.033 338.527H527.701L518.434 366H511.426L502.158 338.527H509.826L514.93 357.037ZM538.695 366H531.332V338.527H538.695V366ZM530.9 331.418C530.9 330.318 531.264 329.412 531.992 328.701C532.737 327.99 533.744 327.635 535.014 327.635C536.266 327.635 537.265 327.99 538.01 328.701C538.755 329.412 539.127 330.318 539.127 331.418C539.127 332.535 538.746 333.449 537.984 334.16C537.24 334.871 536.249 335.227 535.014 335.227C533.778 335.227 532.779 334.871 532.018 334.16C531.273 333.449 530.9 332.535 530.9 331.418ZM543.621 352.061C543.621 347.778 544.577 344.367 546.49 341.828C548.42 339.289 551.052 338.02 554.387 338.02C557.061 338.02 559.27 339.018 561.014 341.016V327H568.377V366H561.75L561.395 363.08C559.566 365.365 557.214 366.508 554.336 366.508C551.103 366.508 548.505 365.238 546.541 362.699C544.594 360.143 543.621 356.597 543.621 352.061ZM550.959 352.594C550.959 355.167 551.408 357.139 552.305 358.51C553.202 359.881 554.505 360.566 556.215 360.566C558.483 360.566 560.083 359.61 561.014 357.697V346.855C560.1 344.943 558.517 343.986 556.266 343.986C552.728 343.986 550.959 346.855 550.959 352.594ZM581.809 366H574.445V338.527H581.809V366ZM574.014 331.418C574.014 330.318 574.378 329.412 575.105 328.701C575.85 327.99 576.857 327.635 578.127 327.635C579.38 327.635 580.378 327.99 581.123 328.701C581.868 329.412 582.24 330.318 582.24 331.418C582.24 332.535 581.859 333.449 581.098 334.16C580.353 334.871 579.363 335.227 578.127 335.227C576.891 335.227 575.893 334.871 575.131 334.16C574.386 333.449 574.014 332.535 574.014 331.418ZM603.314 345.408C602.316 345.273 601.436 345.205 600.674 345.205C597.898 345.205 596.078 346.145 595.215 348.023V366H587.877V338.527H594.809L595.012 341.803C596.484 339.281 598.524 338.02 601.131 338.02C601.943 338.02 602.705 338.13 603.416 338.35L603.314 345.408ZM602.832 362.395C602.832 361.227 603.221 360.279 604 359.551C604.796 358.823 605.786 358.459 606.971 358.459C608.173 358.459 609.163 358.823 609.941 359.551C610.737 360.279 611.135 361.227 611.135 362.395C611.135 363.546 610.745 364.485 609.967 365.213C609.188 365.924 608.189 366.279 606.971 366.279C605.769 366.279 604.779 365.924 604 365.213C603.221 364.485 602.832 363.546 602.832 362.395Z" fill="#1CDC6E"/>
<path fill-rule="evenodd" clip-rule="evenodd" d="M308.41 534.696C247.254 519.526 152.522 573.784 107.932 528.885C62.0878 482.723 57.4485 406.94 64.3309 340.994C70.9167 277.892 106.766 224.074 145.019 173.524C183.417 122.781 222.107 59.2299 284.05 50.6371C345.226 42.1508 392.399 99.2534 444.474 131.983C484.355 157.049 522.669 181.485 551.754 218.892C583.001 259.079 616.713 302.05 616.883 353.722C617.057 406.269 622.752 430.492 593.016 473.902C561.565 519.814 534.131 576.336 481.283 590.889C428.69 605.371 360.942 547.726 308.41 534.696Z" stroke="#1CDC6E" stroke-width="2"/>
</svg>
