<svg width="24" height="24" viewBox="0 0 24 24" fill="none" xmlns="http://www.w3.org/2000/svg">
<path fill-rule="evenodd" clip-rule="evenodd" d="M17 9C17 10.0609 16.5786 11.0783 15.8284 11.8284C15.0783 12.5786 14.0609 13 13 13C11.9391 13 10.9217 12.5786 10.1716 11.8284C9.42143 11.0783 9 10.0609 9 9C9 7.93913 9.42143 6.92172 10.1716 6.17157C10.9217 5.42143 11.9391 5 13 5C14.0609 5 15.0783 5.42143 15.8284 6.17157C16.5786 6.92172 17 7.93913 17 9ZM15 9C15 9.53043 14.7893 10.0391 14.4142 10.4142C14.0391 10.7893 13.5304 11 13 11C12.4696 11 11.9609 10.7893 11.5858 10.4142C11.2107 10.0391 11 9.53043 11 9C11 8.46957 11.2107 7.96086 11.5858 7.58579C11.9609 7.21071 12.4696 7 13 7C13.5304 7 14.0391 7.21071 14.4142 7.58579C14.7893 7.96086 15 8.46957 15 9Z" fill="white"/>
<path fill-rule="evenodd" clip-rule="evenodd" d="M13 1C6.925 1 2 5.925 2 12C2 18.075 6.925 23 13 23C19.075 23 24 18.075 24 12C24 5.925 19.075 1 13 1ZM4 12C4 14.09 4.713 16.014 5.908 17.542C6.74723 16.4399 7.8299 15.5467 9.07143 14.9323C10.313 14.3179 11.6797 13.9988 13.065 14C14.4323 13.9987 15.7819 14.3095 17.0109 14.9088C18.2399 15.508 19.316 16.3799 20.157 17.458C21.0234 16.3216 21.6068 14.9952 21.8589 13.5886C22.111 12.182 22.0244 10.7355 21.6065 9.36898C21.1886 8.00243 20.4512 6.75505 19.4555 5.73004C18.4598 4.70503 17.2343 3.93186 15.8804 3.47451C14.5265 3.01716 13.0832 2.88877 11.6699 3.09997C10.2565 3.31117 8.91379 3.85589 7.75277 4.68905C6.59175 5.52222 5.64581 6.61987 4.99323 7.8912C4.34065 9.16252 4.00018 10.571 4 12ZM13 21C10.9339 21.0031 8.93027 20.2923 7.328 18.988C7.97293 18.0647 8.83134 17.3109 9.83019 16.7907C10.829 16.2705 11.9388 15.9992 13.065 16C14.1772 15.9991 15.2735 16.2636 16.2629 16.7714C17.2524 17.2793 18.1064 18.0159 18.754 18.92C17.1393 20.2667 15.1026 21.0029 13 21Z" fill="white"/>
</svg>
