<?xml version="1.0" standalone="no"?>
<!DOCTYPE svg PUBLIC "-//W3C//DTD SVG 20010904//EN"
 "http://www.w3.org/TR/2001/REC-SVG-20010904/DTD/svg10.dtd">
<svg version="1.0" xmlns="http://www.w3.org/2000/svg"
 width="1280.000000pt" height="720.000000pt" viewBox="0 0 1280.000000 720.000000"
 preserveAspectRatio="xMidYMid meet">

<g transform="translate(0.000000,720.000000) scale(0.100000,-0.100000)"
fill="#000000" stroke="none">
<path d="M0 6701 c0 -323 4 -502 10 -506 14 -8 14 -912 0 -920 -14 -9 -14
-1431 0 -1440 13 -8 13 -75 0 -75 -5 0 -10 -11 -10 -25 0 -14 5 -25 10 -25 9
0 9 -442 1 -705 -1 -16 1 -56 5 -89 4 -37 2 -62 -5 -69 -6 -6 -11 -51 -11
-108 l0 -96 197 -73 c439 -162 714 -280 948 -408 77 -42 298 -182 490 -311
193 -129 415 -278 495 -331 390 -260 707 -413 978 -471 139 -29 404 -37 532
-15 262 46 468 149 821 413 101 75 279 201 394 281 267 184 360 256 460 357
178 180 265 370 265 579 -1 83 -19 219 -32 232 -3 3 -154 20 -334 39 -181 19
-356 39 -389 44 -33 6 -96 15 -140 21 -464 65 -805 183 -1034 357 -49 37 -61
40 -61 18 0 -10 -10 -15 -30 -15 -29 0 -30 2 -30 45 0 41 -7 53 -67 129 -45
56 -71 81 -78 75 -9 -9 -12 -57 -14 -216 -1 -30 -4 -33 -31 -33 l-30 0 0 175
c0 143 3 175 14 175 9 0 -5 37 -44 113 -145 278 -226 543 -277 907 -24 172
-24 631 0 846 9 83 17 160 17 172 0 15 -29 46 -92 99 -51 43 -218 188 -373
323 -359 314 -429 373 -604 509 -269 210 -558 384 -803 485 l-87 36 -530 0
-531 0 0 -499z"/>
<path d="M1215 7152 c362 -156 660 -370 1334 -956 139 -122 304 -263 365 -315
l111 -94 7 29 c3 16 25 124 47 239 45 231 151 620 231 845 28 80 57 160 63
178 5 17 16 32 23 32 7 0 -2 -36 -28 -102 -66 -170 -165 -501 -217 -724 -49
-213 -107 -512 -100 -518 2 -2 85 -67 184 -145 713 -560 1034 -847 1335 -1194
l85 -98 3 131 3 130 29 0 30 0 0 -169 0 -170 142 -178 c77 -98 173 -220 211
-270 51 -69 75 -93 92 -93 19 0 23 -7 28 -40 3 -25 23 -66 53 -110 26 -39 49
-70 51 -70 2 0 3 36 3 80 0 77 -1 80 -23 80 -20 0 -23 4 -19 30 3 21 10 30 23
30 16 0 19 7 19 41 0 28 6 46 18 55 28 22 32 17 32 -41 0 -54 0 -55 30 -55 27
0 30 -3 30 -30 0 -27 -3 -30 -30 -30 l-30 0 0 -108 c0 -111 7 -132 41 -132 17
0 29 -19 29 -46 0 -8 -9 -14 -21 -14 -11 0 -19 -3 -17 -7 64 -126 141 -294
158 -346 12 -38 27 -70 34 -73 6 -2 83 -13 171 -24 452 -57 791 -146 1036
-271 163 -84 453 -283 644 -444 33 -28 74 -62 91 -75 53 -43 276 -230 344
-290 148 -128 466 -382 605 -481 119 -85 260 -179 270 -179 3 0 24 -12 46 -26
84 -53 258 -133 364 -168 272 -90 508 -102 791 -40 467 103 833 335 1564 994
301 271 281 253 400 356 283 246 459 480 569 757 69 173 99 293 225 902 25
121 51 247 58 280 9 40 13 143 13 312 0 168 3 249 10 242 12 -12 14 -404 3
-490 -20 -156 -178 -896 -227 -1064 -122 -417 -289 -654 -721 -1025 -83 -71
-220 -194 -330 -296 -129 -120 -424 -374 -540 -464 -376 -293 -717 -464 -1070
-537 -66 -14 -133 -18 -300 -17 -202 0 -221 2 -314 27 -398 108 -778 349
-1447 917 -760 646 -1016 814 -1409 929 -211 61 -450 104 -804 145 -47 6 -48
5 -42 -18 57 -227 13 -467 -121 -654 -105 -148 -264 -283 -608 -518 -104 -72
-264 -186 -355 -254 -206 -154 -349 -248 -465 -305 -441 -215 -905 -188 -1440
85 -183 93 -372 212 -755 475 -511 351 -762 496 -1120 648 -161 68 -682 267
-700 267 -7 0 -10 -422 -10 -1310 l0 -1310 6400 0 6400 0 0 3600 0 3600 -5847
0 -5848 0 110 -48z m4455 -2577 c33 -19 60 -19 60 0 0 9 10 15 26 15 24 0 25
-3 19 -27 -15 -63 -46 -73 -123 -42 -30 13 -34 12 -43 -4 -14 -23 -49 -22 -49
2 0 28 39 71 63 71 12 -1 33 -7 47 -15z m2888 -225 l-3 -240 -27 0 c-22 0 -28
5 -28 21 0 20 -1 20 -31 -5 -39 -33 -93 -35 -139 -3 -93 62 -106 217 -27 304
43 47 113 57 158 24 l29 -22 0 81 0 80 35 0 35 0 -2 -240z m-3158 102 c20 -10
42 -32 52 -52 l18 -35 -25 -8 c-21 -7 -30 -4 -54 22 -45 48 -116 38 -147 -20
-22 -44 -16 -142 12 -170 46 -46 136 -30 150 26 6 25 28 32 53 16 36 -23 -33
-115 -94 -127 -34 -6 -51 -34 -21 -34 22 0 39 -28 32 -53 -7 -29 -44 -47 -96
-47 -33 0 -40 3 -40 19 0 16 8 20 38 23 41 3 53 31 16 36 -16 2 -20 9 -17 30
3 22 -2 30 -29 43 -73 35 -103 169 -59 266 34 74 133 104 211 65z m357 -2 c42
-25 51 -62 55 -218 l3 -122 -27 0 c-15 0 -31 7 -35 15 -8 13 -14 12 -48 -6
-108 -56 -239 23 -193 117 21 43 58 63 139 75 93 13 102 19 94 51 -8 30 -42
48 -91 48 -27 0 -43 -8 -64 -30 -22 -24 -34 -29 -54 -24 -22 5 -23 8 -14 35
10 30 48 63 83 72 50 12 121 6 152 -13z m371 -7 c48 -36 67 -80 67 -158 0 -78
-19 -122 -67 -158 -38 -29 -123 -34 -168 -10 -119 62 -119 274 0 336 45 24
130 19 168 -10z m552 4 c52 -35 72 -76 72 -155 1 -112 -46 -178 -134 -190 -30
-4 -46 0 -68 17 -16 11 -32 21 -36 21 -4 0 -4 -36 -2 -80 l5 -80 -34 0 -33 0
0 240 0 240 30 0 c24 0 30 -4 30 -21 0 -20 1 -20 31 5 39 33 93 35 139 3z
m360 4 c42 -22 80 -90 80 -143 l0 -38 -129 0 -130 0 9 -31 c13 -44 37 -68 76
-75 41 -8 69 1 98 32 18 20 29 24 49 19 32 -8 32 -8 10 -47 -37 -62 -141 -87
-213 -50 -117 58 -116 277 2 335 44 22 106 21 148 -2z m387 -1 c20 -12 35 -30
38 -47 4 -15 8 -37 10 -48 3 -11 2 -71 -2 -132 l-6 -113 -29 0 -28 0 0 134 c0
128 -1 136 -22 150 -30 21 -71 20 -98 -2 -27 -22 -39 -81 -39 -199 l-1 -83
-30 0 -30 0 0 175 0 175 30 0 c24 0 30 -4 30 -22 l0 -21 23 20 c12 11 29 23
37 26 32 12 87 6 117 -13z m333 5 c30 -16 60 -51 60 -71 0 -7 -11 -15 -24 -18
-19 -5 -32 0 -50 19 -29 29 -90 34 -122 11 -32 -25 -6 -48 80 -72 96 -27 126
-52 126 -109 0 -73 -53 -115 -145 -115 -68 0 -123 34 -139 86 -5 17 -2 23 19
28 21 5 32 1 55 -24 22 -23 37 -30 67 -30 21 0 49 7 61 16 24 16 30 52 10 58
-7 3 -46 14 -87 26 -86 25 -121 54 -121 102 0 65 54 107 138 108 24 0 56 -7
72 -15z m395 -15 c30 -28 34 -50 37 -208 l3 -122 -27 0 c-15 0 -31 7 -35 15
-8 13 -14 12 -48 -6 -57 -29 -136 -23 -173 14 -36 36 -37 95 -2 132 25 27 63
40 146 51 67 8 77 15 69 46 -8 30 -42 48 -91 48 -27 0 -43 -8 -64 -30 -22 -24
-34 -29 -54 -24 -22 5 -23 8 -14 35 10 30 48 62 83 72 11 3 48 5 82 3 50 -1
67 -7 88 -26z m722 10 c42 -25 51 -62 55 -218 l3 -122 -27 0 c-15 0 -31 7 -35
15 -8 13 -14 12 -48 -6 -108 -56 -239 23 -193 117 21 43 58 63 139 75 42 6 81
14 88 18 19 12 3 57 -25 70 -53 24 -134 3 -134 -35 0 -15 -12 -17 -47 -8 -19
5 -20 9 -11 35 10 30 48 63 83 72 50 12 121 6 152 -13z m-4007 -107 c0 -130
10 -162 52 -177 35 -12 82 7 97 40 6 14 11 76 11 139 l0 115 30 0 30 0 0 -175
0 -175 -25 0 c-20 0 -25 5 -25 26 l0 26 -35 -31 c-41 -35 -87 -41 -136 -15
-48 24 -59 65 -59 214 l0 130 30 0 30 0 0 -117z m320 -533 c0 -25 -4 -30 -25
-30 -21 0 -25 5 -25 30 0 25 4 30 25 30 21 0 25 -5 25 -30z m710 -210 l0 -240
-30 0 -31 0 1 203 c2 253 5 277 36 277 l24 0 0 -240z m-217 109 c56 -15 64
-37 70 -184 3 -71 9 -138 12 -147 6 -15 2 -18 -23 -18 -22 0 -32 6 -37 20 -6
19 -7 19 -36 -3 -24 -17 -44 -22 -96 -22 -59 0 -67 3 -89 28 -26 30 -32 83
-13 119 13 24 84 57 124 58 56 0 105 19 105 40 0 36 -35 60 -89 60 -42 0 -53
-4 -74 -29 -18 -22 -31 -28 -46 -24 -28 7 -27 25 5 62 39 46 110 62 187 40z
m397 -319 c0 -28 -3 -30 -35 -30 -32 0 -35 2 -35 30 0 28 3 30 35 30 32 0 35
-2 35 -30z"/>
<path d="M8350 4382 c-79 -79 -25 -236 74 -218 44 8 67 40 73 100 7 60 -12
113 -47 131 -42 22 -68 18 -100 -13z"/>
<path d="M5669 4255 c-94 -17 -101 -20 -97 -52 5 -48 96 -57 147 -15 21 17 41
83 25 81 -5 -1 -39 -7 -75 -14z"/>
<path d="M5990 4398 c-30 -16 -60 -72 -60 -111 0 -41 25 -93 54 -112 32 -21
91 -15 119 14 39 38 39 154 0 192 -25 25 -81 33 -113 17z"/>
<path d="M6561 4396 c-36 -20 -50 -54 -51 -119 0 -52 3 -62 29 -88 20 -20 39
-29 61 -29 22 0 41 9 61 29 26 27 29 36 29 96 0 60 -3 69 -29 96 -32 31 -62
36 -100 15z"/>
<path d="M6915 4398 c-25 -13 -45 -38 -45 -55 0 -10 23 -13 95 -13 61 0 95 4
95 11 0 6 -13 24 -29 40 -32 31 -78 38 -116 17z"/>
<path d="M8035 4253 c-61 -8 -86 -24 -83 -52 8 -70 155 -43 173 32 7 26 5 27
-26 26 -19 -1 -47 -4 -64 -6z"/>
<path d="M8789 4255 c-94 -17 -101 -20 -97 -52 5 -48 96 -57 147 -15 21 17 41
83 25 81 -5 -1 -39 -7 -75 -14z"/>
<path d="M5610 3504 c-41 -7 -76 -13 -77 -13 -1 -1 -7 -10 -13 -21 -8 -15 -6
-24 10 -40 36 -36 134 -18 160 29 12 23 13 62 3 60 -5 -1 -42 -7 -83 -15z"/>
<path d="M3031 5638 c-38 -344 -38 -642 -1 -933 44 -343 168 -724 315 -966 35
-57 38 -59 56 -43 43 39 152 24 179 -25 5 -11 10 -67 10 -124 0 -125 4 -131
117 -207 242 -162 548 -259 1033 -329 199 -29 788 -87 796 -78 21 21 -156 404
-195 424 -30 14 -41 31 -41 64 0 23 -91 179 -104 179 -3 0 -4 -42 -2 -92 4
-126 0 -148 -30 -148 l-24 0 0 164 0 164 -117 154 c-153 202 -286 367 -295
367 -5 1 -8 -21 -8 -49 0 -49 -1 -50 -30 -50 l-30 0 0 94 0 93 -41 52 c-22 28
-42 51 -44 51 -2 0 3 -21 11 -47 42 -139 -37 -260 -164 -250 -98 7 -147 68
-147 182 0 77 19 122 67 158 36 27 117 34 159 13 18 -9 34 -15 36 -13 1 2 -64
73 -146 158 -284 295 -597 565 -1193 1030 -77 60 -143 109 -148 109 -4 0 -12
-46 -19 -102z m548 -1181 c29 -72 73 -179 97 -235 24 -57 44 -106 44 -109 0
-2 -17 -3 -37 -1 -36 3 -38 5 -66 76 l-29 72 -97 0 -96 0 -29 -75 c-28 -73
-29 -75 -63 -75 -24 0 -34 4 -30 13 3 6 44 110 91 231 47 120 89 222 92 227 3
5 20 9 37 9 32 0 33 -2 86 -133z m565 -1 c33 -14 66 -50 66 -72 0 -7 -11 -15
-24 -18 -19 -5 -32 0 -50 19 -29 29 -90 34 -122 11 -32 -25 -6 -48 80 -72 96
-27 126 -52 126 -109 0 -49 -22 -82 -66 -101 -87 -36 -196 0 -218 72 -5 17 -2
23 19 28 21 5 32 1 55 -24 22 -23 37 -30 67 -30 21 0 49 7 61 16 24 16 30 52
10 58 -7 3 -46 14 -87 26 -86 25 -121 54 -121 102 0 85 108 134 204 94z m376
-856 l0 -240 -25 0 c-20 0 -25 5 -25 26 l0 27 -23 -25 c-72 -77 -192 -24 -217
95 -12 59 -1 133 26 175 44 67 154 82 187 26 18 -32 27 -9 27 71 0 84 0 85 25
85 l25 0 0 -240z m150 226 c0 -8 3 -21 6 -30 5 -13 -1 -16 -25 -16 -28 0 -31
3 -31 30 0 25 4 30 25 30 15 0 25 -6 25 -14z m-753 -134 c46 -33 68 -86 67
-162 -1 -76 -20 -118 -65 -151 -43 -31 -122 -36 -169 -12 -119 62 -119 274 0
336 46 24 126 19 167 -11z m1016 19 c13 -5 31 -17 40 -26 16 -15 17 -15 17 4
0 16 6 21 25 21 l25 0 0 -191 c0 -207 -7 -242 -56 -274 -34 -22 -114 -30 -156
-16 -42 14 -63 35 -72 74 -6 26 -5 27 20 21 15 -4 35 -15 45 -25 13 -13 33
-19 63 -19 58 0 94 30 103 83 l6 39 -39 -21 c-77 -41 -149 -17 -189 63 -32 64
-33 127 -2 186 37 74 104 106 170 81z m-259 -119 c-3 -250 -1 -232 -29 -232
l-25 0 0 175 0 175 28 0 27 0 -1 -118z"/>
<path d="M3480 4497 c0 -9 -13 -50 -30 -92 -16 -42 -30 -78 -30 -80 0 -3 32
-5 70 -5 39 0 70 3 70 8 0 12 -62 166 -72 177 -5 5 -8 2 -8 -8z"/>
<path d="M4327 3649 c-42 -24 -60 -110 -36 -177 21 -62 95 -81 145 -39 52 45
42 186 -15 217 -25 13 -71 12 -94 -1z"/>
<path d="M3768 3640 c-58 -45 -61 -148 -7 -203 26 -26 35 -29 71 -24 22 3 50
14 61 25 39 39 39 154 0 194 -31 30 -92 35 -125 8z"/>
<path d="M4834 3636 c-24 -20 -28 -32 -32 -89 -4 -63 -3 -68 26 -97 70 -69
162 -18 162 90 0 103 -87 156 -156 96z"/>
<path d="M4378 4390 c-58 -45 -61 -148 -7 -203 26 -26 35 -29 71 -24 22 3 50
14 61 25 39 39 39 154 0 194 -31 30 -92 35 -125 8z"/>
<path d="M3421 3651 c-12 -8 -10 -16 12 -48 14 -21 42 -56 61 -78 l36 -40 0
72 c0 63 -3 74 -22 87 -25 18 -65 21 -87 7z"/>
</g>
</svg>
