<svg width="49" height="48" viewBox="0 0 49 48" fill="none" xmlns="http://www.w3.org/2000/svg">
<path d="M40.1494 33.622C39.584 34.913 38.8855 36.144 38.0648 37.296C36.9684 38.83 36.0681 39.89 35.378 40.48C34.3061 41.444 33.1546 41.94 31.9235 41.968C31.0415 41.968 29.9757 41.722 28.7344 41.222C27.489 40.724 26.3457 40.48 25.2983 40.48C24.2019 40.48 23.0259 40.724 21.7662 41.222C20.5085 41.722 19.4918 41.984 18.7139 42.008C17.5359 42.058 16.3578 41.55 15.1839 40.48C14.4346 39.84 13.4974 38.74 12.3725 37.184C11.1679 35.526 10.1777 33.596 9.40186 31.402C8.5709 29.028 8.1544 26.732 8.1544 24.508C8.1544 21.962 8.71586 19.764 9.84082 17.924C10.6917 16.4789 11.9081 15.2729 13.3729 14.422C14.8173 13.5733 16.4662 13.1164 18.1504 13.098C19.0896 13.098 20.3207 13.382 21.8458 13.942C23.3709 14.502 24.3509 14.786 24.7777 14.786C25.1002 14.786 26.1844 14.452 28.03 13.79C29.7716 13.176 31.2416 12.922 32.4462 13.022C35.7128 13.28 38.1649 14.54 39.7962 16.812C36.8766 18.546 35.4331 20.972 35.4617 24.086C35.4862 26.512 36.3866 28.53 38.1506 30.132C38.9304 30.8631 39.8404 31.4481 40.8354 31.858C40.6189 32.472 40.3903 33.058 40.1494 33.622ZM32.6626 4.76C32.6626 6.66 31.9521 8.436 30.5413 10.078C28.8344 12.03 26.7724 13.16 24.5367 12.982C24.5075 12.7431 24.4932 12.5026 24.4939 12.262C24.4939 10.436 25.3024 8.484 26.7458 6.886C27.4645 6.078 28.3792 5.404 29.4878 4.868C30.5944 4.34 31.6397 4.048 32.6238 3.998C32.6503 4.254 32.6626 4.508 32.6626 4.76Z" fill="white"/>
</svg>
