<svg width="33" height="47" viewBox="0 0 33 47" fill="none" xmlns="http://www.w3.org/2000/svg">
<path d="M18.9644 22.1692L23.8112 16.1631C14.9585 9.66686 1.87721 0.136299 1.13793 0L1.07876 0.00751993L18.9644 22.1692Z" fill="#08B059"/>
<path d="M0.00606897 1.33714L0 1.40999V45.5896L0.00568965 45.6596L17.8913 23.4984L0.00606897 1.33714Z" fill="#1BB899"/>
<path d="M18.9667 24.8308L1.08179 46.992L1.13793 47C1.88062 46.8534 14.9596 37.3275 23.8112 30.834L18.9667 24.8308Z" fill="#F04F3E"/>
<path d="M31.8621 22.0898C31.8621 22.0898 29.0658 20.0227 25.1615 17.1548L20.0397 23.5016L25.1593 29.8452C29.0647 26.9768 31.8621 24.9098 31.8621 24.9098C32.4716 24.5131 33 24.2786 33 23.4998C33 22.7215 32.3992 22.454 31.8621 22.0898Z" fill="#F99C1C"/>
</svg>
