<svg width="221" height="57" viewBox="0 0 221 57" fill="none" xmlns="http://www.w3.org/2000/svg">
<path d="M83.1353 30.0278V38.7143H81.3335V17.3862H88.5991C90.8159 17.3862 92.564 17.9526 93.8433 19.0854C95.1323 20.2182 95.7769 21.7758 95.7769 23.7582C95.7769 25.7602 95.1568 27.308 93.9165 28.4018C92.6861 29.4858 90.8989 30.0278 88.5552 30.0278H83.1353ZM83.1353 28.5043H88.5991C90.3472 28.5043 91.6802 28.0893 92.5982 27.2592C93.5161 26.4291 93.9751 25.2719 93.9751 23.7875C93.9751 22.3129 93.5161 21.1411 92.5982 20.2719C91.69 19.393 90.396 18.9438 88.7163 18.9243H83.1353V28.5043ZM108.521 34.1586H100.245L98.4282 38.7143H96.6118L103.555 21.6489H105.24L112.125 38.7143H110.323L108.521 34.1586ZM100.831 32.6645H107.92L104.39 23.7436L100.831 32.6645ZM119.273 30.9653L124.708 21.6489H126.714L120.137 32.518V38.7143H118.379V32.4448L111.846 21.6489H113.853L119.273 30.9653ZM139.634 34.4809C139.634 33.6118 139.312 32.9135 138.668 32.3862C138.023 31.8588 136.822 31.3754 135.064 30.936C133.316 30.4868 132.027 30.0375 131.197 29.5883C130.367 29.1391 129.747 28.6166 129.336 28.0209C128.936 27.4155 128.736 26.7026 128.736 25.8823C128.736 24.5639 129.312 23.4897 130.464 22.6596C131.617 21.8295 133.116 21.4145 134.961 21.4145C136.817 21.4145 138.335 21.8979 139.517 22.8647C140.699 23.8217 141.29 25.0522 141.29 26.5561H139.532C139.532 25.4526 139.112 24.5688 138.272 23.9047C137.432 23.2407 136.324 22.9086 134.947 22.9086C133.589 22.9086 132.505 23.1821 131.695 23.7289C130.884 24.2758 130.479 24.9887 130.479 25.8676C130.479 26.6782 130.835 27.3422 131.548 27.8598C132.261 28.3676 133.443 28.8315 135.093 29.2514C136.753 29.6713 138.003 30.1108 138.843 30.5698C139.693 31.0287 140.333 31.5805 140.762 32.225C141.192 32.8598 141.407 33.6069 141.407 34.4662C141.407 35.8334 140.816 36.9223 139.634 37.7328C138.462 38.5434 136.934 38.9487 135.049 38.9487C133.76 38.9487 132.588 38.7436 131.534 38.3334C130.479 37.9135 129.649 37.3178 129.043 36.5463C128.448 35.7651 128.15 34.8373 128.15 33.7631H129.908C129.908 34.9252 130.367 35.8383 131.285 36.5024C132.212 37.1567 133.467 37.4838 135.049 37.4838C136.436 37.4838 137.544 37.2104 138.375 36.6635C139.214 36.1069 139.634 35.3793 139.634 34.4809ZM158.37 38.7143H156.626V31.0385H146.417V38.7143H144.673V21.6489H146.417V29.5444H156.626V21.6489H158.37V38.7143ZM172.886 34.1586H164.61L162.793 38.7143H160.977L167.92 21.6489H169.605L176.49 38.7143H174.688L172.886 34.1586ZM165.196 32.6645H172.286L168.755 23.7436L165.196 32.6645ZM186.026 31.8588H180.84V38.7143H179.097V21.6489H185.147C187.11 21.6489 188.643 22.1078 189.747 23.0258C190.86 23.9438 191.417 25.2036 191.417 26.8051C191.417 27.9282 191.075 28.9096 190.391 29.7495C189.708 30.5795 188.804 31.1508 187.681 31.4633L192.193 38.5678V38.7143H190.318L186.026 31.8588ZM180.84 30.3647H185.469C186.739 30.3647 187.754 30.0375 188.516 29.3832C189.278 28.7289 189.659 27.8842 189.659 26.8491C189.659 25.7065 189.263 24.808 188.472 24.1537C187.691 23.4995 186.597 23.1674 185.191 23.1577H180.84V30.3647ZM205.757 30.6137H197.305V37.2348H207.046V38.7143H195.562V21.6489H206.988V23.1577H197.305V29.1196H205.757V30.6137Z" fill="white"/>
<circle cx="25.5" cy="28.5" r="25.5" fill="#1CDC6E"/>
<path d="M2.44312 39.3413L25.2664 3.30539L50.8473 29.7216L25.2664 54L2.44312 16.5898" stroke="#202020" stroke-width="3"/>
</svg>
