<svg width="50" height="44" viewBox="0 0 50 44" fill="none" xmlns="http://www.w3.org/2000/svg">
<rect y="8" width="46" height="36" rx="10" fill="#45464D"/>
<path d="M11.9 18.2501C11.9 17.481 12.2055 16.7433 12.7494 16.1995C13.2932 15.6556 14.0309 15.3501 14.8 15.3501H24.95C25.7191 15.3501 26.4568 15.6556 27.0006 16.1995C27.5445 16.7433 27.85 17.481 27.85 18.2501V24.0501C27.85 24.8192 27.5445 25.5569 27.0006 26.1007C26.4568 26.6446 25.7191 26.9501 24.95 26.9501H22.05L17.7 31.3001V26.9501H14.8C14.0309 26.9501 13.2932 26.6446 12.7494 26.1007C12.2055 25.5569 11.9 24.8192 11.9 24.0501V18.2501Z" fill="white"/>
<path d="M30.75 21.1501V24.0501C30.75 25.5884 30.1389 27.0637 29.0512 28.1514C27.9635 29.2391 26.4883 29.8501 24.95 29.8501H23.2506L20.6899 32.4123C21.0959 32.6283 21.5585 32.7501 22.05 32.7501H24.95L29.3 37.1001V32.7501H32.2C32.9691 32.7501 33.7068 32.4446 34.2506 31.9008C34.7945 31.3569 35.1 30.6193 35.1 29.8501V24.0501C35.1 23.281 34.7945 22.5434 34.2506 21.9995C33.7068 21.4557 32.9691 21.1501 32.2 21.1501H30.75Z" fill="white"/>
<ellipse cx="42.5" cy="8" rx="7.5" ry="8" fill="#1CDC6E" fill-opacity="0.8"/>
<path d="M42.7998 13H42.0381V4.67188L39.5244 5.60498V4.89404L42.6729 3.72607H42.7998V13Z" fill="white"/>
</svg>
