<svg width="25" height="19" viewBox="0 0 25 19" fill="none" xmlns="http://www.w3.org/2000/svg">
<path d="M23.4688 0.90625H1.53125C1.06455 0.90625 0.6875 1.25537 0.6875 1.6875V17.3125C0.6875 17.7446 1.06455 18.0938 1.53125 18.0938H23.4688C23.9355 18.0938 24.3125 17.7446 24.3125 17.3125V1.6875C24.3125 1.25537 23.9355 0.90625 23.4688 0.90625ZM2.58594 2.66406H22.4141V5.59375H2.58594V2.66406ZM22.4141 16.3359H2.58594V7.74219H22.4141V16.3359ZM16.165 14.7734H20.5156C20.6316 14.7734 20.7266 14.6855 20.7266 14.5781V12.8203C20.7266 12.7129 20.6316 12.625 20.5156 12.625H16.165C16.049 12.625 15.9541 12.7129 15.9541 12.8203V14.5781C15.9541 14.6855 16.049 14.7734 16.165 14.7734Z" fill="#5F606A"/>
</svg>
