<svg width="27" height="25" viewBox="0 0 27 25" fill="none" xmlns="http://www.w3.org/2000/svg">
<path fill-rule="evenodd" clip-rule="evenodd" d="M22.7931 19.2563C24.4071 17.3524 25.2934 15.0065 25.3133 12.5861C25.3331 10.1658 24.4853 7.80773 22.9028 5.88131C21.7352 4.45905 20.2092 3.32324 18.458 2.57319C16.7069 1.82313 14.784 1.48166 12.8574 1.57862C10.9309 1.67559 9.05929 2.20803 7.40628 3.12941C5.75328 4.05079 4.36919 5.33306 3.375 6.86412V3.12506H1.6875V8.59381L2.53125 9.37506H8.4375V7.81256H4.74356C5.87087 6.00805 7.61481 4.60231 9.70038 3.81701C11.786 3.03171 14.0945 2.91153 16.262 3.47541C18.4295 4.0393 20.3326 5.25517 21.6713 6.9313C23.01 8.60743 23.708 10.6485 23.6553 12.7325C23.6027 14.8166 22.8023 16.8252 21.3804 18.4415C19.9586 20.0579 17.9961 21.19 15.8025 21.6594C13.6089 22.1288 11.309 21.9088 9.26533 21.034C7.22171 20.1593 5.55068 18.6795 4.51575 16.8282L3.01894 17.5501C3.9304 19.1734 5.26709 20.559 6.90663 21.5802C8.54616 22.6014 10.4362 23.2254 12.4036 23.3951C14.371 23.5649 16.353 23.275 18.1681 22.5519C19.9832 21.8288 21.5734 20.6957 22.7931 19.2563ZM17.1214 17.7407L18.3161 16.636L13.5 12.1751V6.25006H11.8125V12.5001L12.0589 13.0532L17.1214 17.7407Z" fill="#5F606A"/>
</svg>
