<svg width="27" height="25" viewBox="0 0 27 25" fill="none" xmlns="http://www.w3.org/2000/svg">
<path d="M4.5 13.5417H11.25C11.5484 13.5417 11.8345 13.4319 12.0455 13.2366C12.2565 13.0412 12.375 12.7763 12.375 12.5V4.16667C12.375 3.8904 12.2565 3.62545 12.0455 3.4301C11.8345 3.23475 11.5484 3.125 11.25 3.125H4.5C4.20163 3.125 3.91548 3.23475 3.7045 3.4301C3.49353 3.62545 3.375 3.8904 3.375 4.16667V12.5C3.375 12.7763 3.49353 13.0412 3.7045 13.2366C3.91548 13.4319 4.20163 13.5417 4.5 13.5417ZM3.375 20.8333C3.375 21.1096 3.49353 21.3746 3.7045 21.5699C3.91548 21.7653 4.20163 21.875 4.5 21.875H11.25C11.5484 21.875 11.8345 21.7653 12.0455 21.5699C12.2565 21.3746 12.375 21.1096 12.375 20.8333V16.6667C12.375 16.3904 12.2565 16.1254 12.0455 15.9301C11.8345 15.7347 11.5484 15.625 11.25 15.625H4.5C4.20163 15.625 3.91548 15.7347 3.7045 15.9301C3.49353 16.1254 3.375 16.3904 3.375 16.6667V20.8333ZM14.625 20.8333C14.625 21.1096 14.7435 21.3746 14.9545 21.5699C15.1655 21.7653 15.4516 21.875 15.75 21.875H22.5C22.7984 21.875 23.0845 21.7653 23.2955 21.5699C23.5065 21.3746 23.625 21.1096 23.625 20.8333V13.5417C23.625 13.2654 23.5065 13.0004 23.2955 12.8051C23.0845 12.6097 22.7984 12.5 22.5 12.5H15.75C15.4516 12.5 15.1655 12.6097 14.9545 12.8051C14.7435 13.0004 14.625 13.2654 14.625 13.5417V20.8333ZM15.75 10.4167H22.5C22.7984 10.4167 23.0845 10.3069 23.2955 10.1116C23.5065 9.91622 23.625 9.65127 23.625 9.375V4.16667C23.625 3.8904 23.5065 3.62545 23.2955 3.4301C23.0845 3.23475 22.7984 3.125 22.5 3.125H15.75C15.4516 3.125 15.1655 3.23475 14.9545 3.4301C14.7435 3.62545 14.625 3.8904 14.625 4.16667V9.375C14.625 9.65127 14.7435 9.91622 14.9545 10.1116C15.1655 10.3069 15.4516 10.4167 15.75 10.4167Z" fill="white"/>
</svg>
