<svg width="27" height="25" viewBox="0 0 27 25" fill="none" xmlns="http://www.w3.org/2000/svg">
<path d="M10.9688 1.5625V4.6875L9.28125 5.46875L6.75 3.125L3.375 6.25L5.90625 8.59375L5.0625 10.1562H1.6875V14.8438H5.0625L5.90625 16.4062L3.375 18.75L6.75 21.875L9.28125 19.5312L10.9688 20.3125V23.4375H16.0313V20.3125L17.7188 19.5312L20.25 21.875L23.625 18.75L21.0938 16.4062L21.9375 14.8438H25.3125V10.1562H21.9375L21.0938 8.59375L23.625 6.25L20.25 3.125L17.7188 5.46875L16.0313 4.6875V1.5625H10.9688Z" stroke="#5F606A" stroke-linecap="round" stroke-linejoin="round"/>
<path d="M13.5 15.625C15.364 15.625 16.875 14.2259 16.875 12.5C16.875 10.7741 15.364 9.375 13.5 9.375C11.636 9.375 10.125 10.7741 10.125 12.5C10.125 14.2259 11.636 15.625 13.5 15.625Z" stroke="#5F606A" stroke-linecap="round" stroke-linejoin="round"/>
</svg>
