<svg width="27" height="25" viewBox="0 0 27 25" fill="none" xmlns="http://www.w3.org/2000/svg">
<path d="M25.4069 18.7507L25.2289 18.8512V19.0556V22.2222C25.2289 22.8635 24.9684 23.4802 24.5019 23.9361C24.0351 24.3923 23.4003 24.65 22.7368 24.65H2.84211C2.17861 24.65 1.54385 24.3923 1.07707 23.9361C0.610567 23.4802 0.35 22.8635 0.35 22.2222V2.77778C0.35 2.13651 0.610567 1.51984 1.07707 1.0639C1.54385 0.607684 2.17861 0.35 2.84211 0.35H22.7368C23.4003 0.35 24.0351 0.607684 24.5019 1.0639C24.9684 1.51984 25.2289 2.13651 25.2289 2.77778V5.94444V6.14883L25.4069 6.24927C25.784 6.462 26.0965 6.76689 26.3142 7.13287C26.5316 7.49844 26.6472 7.91259 26.65 8.33431V16.6657C26.6472 17.0874 26.5316 17.5016 26.3142 17.8671C26.0965 18.2331 25.784 18.538 25.4069 18.7507ZM2.84211 2.42778H2.49211V2.77778V22.2222V22.5722H2.84211H22.7368H23.0868V22.2222V19.4444V19.0944H22.7368H14.2105C13.547 19.0944 12.9123 18.8368 12.4455 18.3805C11.979 17.9246 11.7184 17.3079 11.7184 16.6667V8.33333C11.7184 7.69207 11.979 7.0754 12.4455 6.61945C12.9123 6.16324 13.547 5.90556 14.2105 5.90556H22.7368H23.0868V5.55556V2.77778V2.42778H22.7368H2.84211ZM14.2105 7.98333H13.8605V8.33333V16.6667V17.0167H14.2105H24.1579H24.5079V16.6667V8.33333V7.98333H24.1579H14.2105ZM17.2111 11.2772C17.5446 10.9512 17.9986 10.7667 18.4737 10.7667C18.9487 10.7667 19.4028 10.9512 19.7363 11.2772C20.0696 11.6029 20.2553 12.0429 20.2553 12.5C20.2553 12.9571 20.0696 13.3971 19.7363 13.7228C19.4028 14.0488 18.9487 14.2333 18.4737 14.2333C17.9986 14.2333 17.5446 14.0488 17.2111 13.7228C16.8778 13.3971 16.6921 12.9571 16.6921 12.5C16.6921 12.0429 16.8778 11.6029 17.2111 11.2772Z" fill="#5F606A" stroke="#2D2D2D" stroke-width="0.7"/>
</svg>
